<?xml version="1.0" encoding="UTF-8" standalone="no"?>
<svg
   version="1.1"
   id="Layer_1"
   x="0px"
   y="0px"
   width="100%"
   viewBox="0 0 776 806"
   enable-background="new 0 0 776 806"
   xml:space="preserve"
   sodipodi:docname="Icon_Substation_NL_Oranje.svg"
   inkscape:version="1.3.2 (091e20e, 2023-11-25, custom)"
   xmlns:inkscape="http://www.inkscape.org/namespaces/inkscape"
   xmlns:sodipodi="http://sodipodi.sourceforge.net/DTD/sodipodi-0.dtd"
   xmlns="http://www.w3.org/2000/svg"
   xmlns:svg="http://www.w3.org/2000/svg"><defs
   id="defs261" /><sodipodi:namedview
   id="namedview261"
   pagecolor="#ffffff"
   bordercolor="#000000"
   borderopacity="0.25"
   inkscape:showpageshadow="2"
   inkscape:pageopacity="0.0"
   inkscape:pagecheckerboard="0"
   inkscape:deskcolor="#d1d1d1"
   inkscape:zoom="0.68166497"
   inkscape:cx="587.53202"
   inkscape:cy="338.14265"
   inkscape:window-width="1920"
   inkscape:window-height="991"
   inkscape:window-x="-9"
   inkscape:window-y="-9"
   inkscape:window-maximized="1"
   inkscape:current-layer="Layer_1" />

<path
   fill="#fbdf1b"
   opacity="1"
   stroke="none"
   d="m 192.62505,795.89863 c -6.2097,-0.8598 -11.3005,-3.67481 -15.2582,-9.15534 -0.2337,-0.76532 -0.4322,-0.84204 -0.7083,-0.71838 0,0 -0.3257,-0.33783 -0.4676,-0.50867 -0.142,-0.17083 -0.3943,-0.23614 -0.3943,-0.23614 -0.1152,-0.56446 -0.2303,-1.12891 -0.4737,-2.39307 -0.682,-1.19012 -1.2358,-1.6806 -1.7896,-2.17102 -0.046,-0.66443 -0.092,-1.32886 -0.2066,-2.87433 0.015,-4.04114 0.1719,-7.20117 0.1725,-10.36126 0.024,-112.56037 0.033,-225.12073 0.5098,-337.70209 115.3295,-0.0233 230.193,-0.0284 345.0566,-0.0257 21.1409,5.2e-4 42.2818,0.0328 63.4277,0.51386 0.01,113.72693 0.01,226.99035 0.047,340.25378 6e-4,1.73285 0.5027,3.46558 0.7709,5.19837 -0.9472,2.91534 -1.8945,5.83062 -3.0396,9.09722 -0.198,0.35126 -0.1831,0.60675 -0.1831,0.60675 -4.1956,5.16968 -9.0587,9.31177 -16.7808,10.35193 -123.127,-0.009 -245.4097,-0.0186 -367.6923,-0.0209 -0.9967,0 -1.9933,0.0946 -2.99,0.14496 m 194.1518,-202.05225 c -2.0731,0 -4.1463,0 -6.5189,0 6.7059,-35.29303 13.2598,-69.7854 19.8136,-104.2778 -0.4696,-0.13376 -0.9392,-0.26752 -1.4087,-0.40128 -0.7134,0.84928 -1.5628,1.61808 -2.1198,2.55979 -9.6791,16.36514 -19.3307,32.74655 -28.971,49.13455 -10.0389,17.06543 -20.0873,34.12524 -30.0782,51.21863 -6.7011,11.4649 -13.3094,22.98407 -20.5858,34.83404 -1.3211,3.25837 1.5675,1.74878 2.3194,1.75312 18.0891,0.10424 36.1792,0.0392 54.2683,0.13788 2.0402,0.0112 4.076,0.81604 6.1071,2.01532 -7.1928,30.37805 -13.9779,60.84191 -20.6414,91.33136 0.7529,0.28009 1.5059,0.56011 2.2588,0.8402 25.9708,-42.37036 51.9417,-84.74078 78.5863,-128.21032 -5.2388,0 -9.1747,0 -13.6702,-0.68451 -12.8194,-0.0681 -25.6388,-0.13617 -39.3595,-0.25098 z"
   id="path2"
   style="stroke:#000000;stroke-width:4.7;stroke-dasharray:none;stroke-opacity:1;fill:#fbaa1b;fill-opacity:1" />

<path
   fill="#fbdf1b"
   opacity="1"
   stroke="none"
   d="m 257.68105,325.65897 c -6.552,3.01319 -13.104,6.02637 -20.2542,9.18781 -1.0396,0.4111 -1.4811,0.67395 -1.9226,0.93686 -3.7595,1.67471 -7.519,3.34942 -11.9098,5.15881 -1.0821,0.67716 -1.5329,1.21967 -1.9837,1.76218 -7.5544,3.36612 -15.1059,6.7388 -22.6671,10.08951 -0.8734,0.38696 -1.8007,0.652 -3.1567,0.80914 -0.5939,-0.48786 -0.8368,-0.61517 -1.1824,-0.5463 0,0 -0.092,-0.30215 -0.2378,-0.59219 -0.3191,-0.52704 -0.5484,-0.68213 -0.8331,-0.75528 -1.9455,-4.10043 -3.8909,-8.2009 -5.7397,-12.74545 -0.3559,-1.04367 -0.8085,-1.64328 -1.261,-2.24286 -1.6195,-3.44553 -3.239,-6.89102 -4.771,-10.79651 -0.3422,-1.30618 -0.772,-2.15244 -1.2018,-2.99869 0,0 -0.031,-0.22238 -0.1654,-0.47384 -0.3164,-0.50626 -0.5587,-0.67353 -0.8614,-0.7533 -1.6147,-3.43262 -3.2293,-6.8652 -4.7542,-10.74023 -0.3557,-1.03711 -0.8012,-1.63181 -1.2466,-2.22648 -0.9485,-1.77932 -1.897,-3.55868 -2.7298,-5.80343 -0.9773,-0.7179 -2.0703,-0.97037 -3.1633,-1.22284 -7.2148,3.33478 -14.42958,6.66955 -22.22266,10.1438 -0.96278,0.37466 -1.34724,0.6098 -1.7317,0.84497 0,0 -0.22261,0.0312 -0.47414,0.16592 -0.50631,0.31653 -0.67358,0.55881 -0.75332,0.86161 -2.88907,1.11532 -5.77813,2.23068 -9.15995,3.73138 -1.60276,1.01312 -2.71275,1.6409 -3.82275,2.26862 -2.56413,1.02774 -5.12828,2.05548 -8.207,3.21502 -0.82419,0.32035 -1.13379,0.50888 -1.44339,0.69739 -0.15538,0.10693 -0.31075,0.21387 -0.81464,0.37839 -0.60954,0.24212 -0.87057,0.4266 -1.13162,0.61108 0,0 -0.37259,0.17972 -0.65973,0.32626 -0.48659,0.28714 -0.58093,0.47953 -0.57016,0.7237 -6.0544,2.69342 -12.10573,5.3938 -18.164584,8.07721 -2.74854,1.21725 -5.284,3.47861 -8.58235,0.95004 -3.333183,-2.55527 -3.744453,-5.68463 -2.213323,-9.78415 0.47398,-0.9906 0.61946,-1.55716 0.76495,-2.12369 0.62433,-0.79946 1.24866,-1.59893 2.278653,-2.77487 1.10979,-1.00729 1.81394,-1.63812 2.51809,-2.26892 7.682384,-9.46875 15.364774,-18.93753 23.422434,-28.82147 0.75035,-0.99686 1.12544,-1.57855 1.5005,-2.16028 0.39006,-0.47275 0.78014,-0.94549 1.4566,-1.79565 0.60781,-0.5437 0.73923,-0.80536 0.6807,-1.16236 0,0 0.22154,-0.0422 0.50508,-0.20038 0.6714,-0.72482 1.05928,-1.29147 1.44717,-1.85815 0.36469,-0.47339 0.72937,-0.94681 1.33342,-1.87906 0.23935,-0.45886 0.10132,-0.93146 0.10132,-0.93146 0,0 -0.002,-0.0619 0.29503,-0.065 0.92661,-1.0101 1.55666,-2.01709 2.18668,-3.02411 1.90831,-2.36508 3.81663,-4.73013 6.30066,-7.25659 0.95689,-0.71939 1.33807,-1.27731 1.71923,-1.83526 0.70719,-0.80021 1.41439,-1.60041 2.34708,-2.90372 0.1684,-0.66385 0.11133,-0.82462 0.0543,-0.98535 0,0 -0.0213,-0.0309 0.26373,0.0102 0.63412,-0.34793 0.98317,-0.73697 1.3322,-1.12604 2.12727,-3.01712 4.25456,-6.03424 7.16459,-10.16153 -6.83741,3.09772 -12.48152,5.65482 -18.76332,8.34278 -1.09242,0.67791 -1.54718,1.22494 -2.00195,1.77194 -3.45406,1.36752 -6.90811,2.73501 -10.99542,4.23874 -1.07878,0.67492 -1.52431,1.21362 -1.96982,1.75232 -6.54116,3.00204 -13.082324,6.00412 -20.204304,9.14505 -0.9674,0.37597 -1.35397,0.61313 -1.740553,0.85028 0,0 -0.22262,0.0313 -0.47415,0.16595 -0.50632,0.31656 -0.6736,0.55887 -0.75337,0.86164 -2.88735,1.11422 -5.77469,2.22845 -9.15404,3.72955 -1.56795,1.01126 -2.64389,1.63565 -3.71982,2.26001 -7.54409,2.25549 -8.91175,1.86746 -12.24548,-4.17145 -0.0222,-1.737 0.0688,-2.74457 0.15968,-3.75217 2.92756,-4.11224 5.85512,-8.22445 9.16803,-12.74267 0.76058,-0.66315 1.13581,-0.92029 1.51103,-1.17743 10e-6,0 0.31782,-0.16419 0.63291,-0.3428 0.66687,-0.70594 1.01865,-1.23322 1.37043,-1.7605 0.1068,-0.4328 0.21358,-0.8656 0.59019,-1.72864 0.45146,-0.68063 0.63309,-0.931 0.81472,-1.18137 0,0 0.0327,-3e-5 0.32142,0.0591 0.627,-0.34754 0.96533,-0.75422 1.30364,-1.16092 3.35964,-4.11299 6.71928,-8.226 10.42239,-12.77182 0.754853,-0.99814 1.166223,-1.56346 1.577593,-2.12879 10e-6,0 0.28642,-0.11578 0.58977,-0.28521 0.65783,-0.71248 1.01231,-1.2555 1.36678,-1.79853 1.70317,-2.12623 3.40634,-4.25249 5.39031,-6.87306 0.22796,-0.65343 0.17512,-0.8125 0.12229,-0.97156 0,0 -0.005,-0.0481 0.24657,-0.006 0.59026,-0.35936 0.92858,-0.76065 1.266924,-1.16194 3.52869,-4.59366 7.06568,-9.18099 10.58019,-13.78548 0.87809,-1.15039 1.68378,-2.35603 2.9437,-3.92922 1.12426,-1.02568 1.82758,-1.65841 2.5309,-2.29115 1.51998,-2.04936 3.03993,-4.09872 4.55991,-6.1481 -0.34096,-0.48904 -0.68192,-0.97807 -1.02288,-1.46712 -15.29731,7.2069 -30.594637,14.41379 -46.440967,21.76317 -0.89366,0.35243 -1.2383,0.56238 -1.58295,0.77234 0,0 -0.27912,0.0852 -0.53811,0.21986 -0.4979,0.29334 -0.62107,0.5161 -0.62855,0.803 -6.98205,3.05897 -14.03561,5.96725 -20.91921,9.2337 -4.09974,1.94547 -6.21485,0.06 -8.58135,-2.94708 -2.31389,-2.94025 -1.96298,-5.02809 0.33983,-7.77062 4.5427,-5.41012 8.72618,-11.12187 13.39686,-17.14917 0.79914,-1.03424 1.25964,-1.62819 1.72015,-2.22212 0,0 7.9e-4,-0.0436 0.30017,0.0176 0.65216,-0.3267 1.00495,-0.71453 1.35774,-1.10237 3.02689,-3.78163 6.05377,-7.56326 9.45074,-11.79196 1.10875,-1.36821 1.84741,-2.28937 2.58606,-3.21052 3.01564,-4.10419 6.0313,-8.20836 9.41863,-12.73627 0.54717,-0.6752 0.72267,-0.92668 0.89817,-1.17815 0,0 0.0314,-0.0222 0.32015,0.0467 0.63239,-0.33022 0.97602,-0.72942 1.31964,-1.12862 5.35364,-6.44352 10.707293,-12.88705 16.364603,-19.76304 -0.15197,-0.68137 -0.60759,-0.93029 -1.06322,-1.17919 -6.07433,2.5645 -12.185333,5.04637 -18.210803,7.72098 -4.4118,1.95833 -8.71123,4.16983 -13.70426,6.39469 -1.13512,0.6822 -1.62674,1.23818 -2.11837,1.79417 -7.04052,3.20322 -14.0815,6.40543 -21.12143,9.60995 -5.21068,2.37188 -10.42,4.74675 -16.19882,7.41092 -1.64641,0.40694 -2.72391,0.52324 -3.80142,0.63953 -0.20099,-0.13586 -0.40198,-0.27176 -0.87957,-0.79752 -0.44316,-0.61184 -0.65488,-0.66957 -0.91175,-0.56302 -7.11691,-4.37757 -1.89621,-9.0091 0.1476,-13.98036 1.12338,-1.03872 1.81992,-1.66354 2.51645,-2.28836 0.42489,-0.76158 0.84977,-1.52318 1.59187,-2.68998 1.00365,-1.03841 1.69009,-1.67159 2.37653,-2.30478 3.36679,-4.11641 6.7336,-8.23282 10.42939,-12.78049 0.72307,-0.98279 1.11715,-1.53432 1.51122,-2.08585 0,0 0.33409,-0.18318 0.65102,-0.38989 0.33258,-0.66902 0.34824,-1.13132 0.36391,-1.59363 1.43438,-1.59173 2.86877,-3.18347 4.47884,-5.11691 0.17567,-0.34172 0.17352,-0.59961 0.17352,-0.59961 0.14945,-0.10736 0.29891,-0.21471 0.89216,-0.54935 0.815,-0.78152 1.1862,-1.33572 1.5574,-1.88992 4.68183,-6.10435 9.36366,-12.2087 14.47009,-18.70536 1.13201,-1.02768 1.83942,-1.66304 2.54683,-2.2984 0.68552,-0.79919 1.37104,-1.59838 2.29245,-2.77999 0.56335,-0.5127 0.66597,-0.74295 0.54373,-1.07316 0,0 0.36264,-0.21119 0.70422,-0.39975 0.68554,-0.70259 1.0295,-1.21661 1.37347,-1.73063 4.3695,-5.45539 8.739,-10.91078 13.38367,-16.861419 0.27516,-0.495257 0.12892,-0.969806 0.12892,-0.969806 0,0 -0.005,-0.04993 0.24721,-0.0076 0.59071,-0.362641 0.92906,-0.767609 1.26742,-1.172577 1.76221,-2.414627 3.52442,-4.829262 5.627723,-7.682236 0.80361,-1.035156 1.26612,-1.631981 1.72862,-2.228805 0,0 -0.0171,-0.05438 0.28644,0.01328 0.6538,-0.322243 1.00408,-0.712135 1.35436,-1.102028 3.18661,-3.926491 6.41929,-7.817291 9.516614,-11.812996 0.5457,-0.703972 0.52535,-1.846725 0.64193,-3.288345 -0.31826,-0.829079 -0.51204,-1.156647 -0.70583,-1.484215 -0.093,-0.161751 -0.18604,-0.323509 -0.37556,-0.84288 -0.27099,-0.615677 -0.44548,-0.873734 -0.61998,-1.131791 -1.999574,-3.924427 -3.999144,-7.848854 -5.880834,-12.223091 -0.33644,-1.050594 -0.79076,-1.651378 -1.24508,-2.252163 -1.67713,-3.756137 -3.35425,-7.512275 -4.826163,-11.763195 -0.0626,-1.314857 -0.3305,-2.134929 -0.59836,-2.955001 0.11695,-0.845646 0.23388,-1.691288 0.53402,-3.091485 0.0619,-1.421054 -0.0595,-2.287561 -0.18078,-3.154067 1.819763,-2.622456 3.639533,-5.24491 6.030533,-8.101824 1.05865,-0.782576 1.54606,-1.330693 2.03348,-1.878809 0.44951,-0.02616 0.89902,-0.05231 1.94209,-0.221266 1.041864,-0.458733 1.490174,-0.774668 1.938484,-1.090601 0.94385,-0.02173 1.88771,-0.04346 3.37585,-0.460695 1.59431,-0.33969 2.64431,-0.283879 3.69431,-0.228066 9.87219,1.798586 13.23773,9.907915 17.05223,17.581717 0.65107,1.30978 1.30162,2.619819 2.10805,4.466827 0.34942,0.859898 0.54324,1.182705 0.73706,1.505509 0,0 0.12452,0.361881 0.27914,0.684158 0.32524,0.552421 0.54953,0.702511 0.82748,0.772545 1.17337,2.962002 2.34673,5.924003 3.78612,9.439308 0.92494,1.897938 1.58386,3.242573 2.24278,4.587212 0,0 0.001,-0.06615 0.22574,0.282226 2.2112,0.450955 4.19785,0.642254 6.18456,0.643051 42.14887,0.0169 84.29767,0.0013 126.44647,0.04748 1.9384,0.0021 3.8761,0.521633 5.8141,0.800174 0.2217,0.03674 0.4434,0.07348 1.1777,0.28975 0.672,0.126075 0.8315,0.07262 0.9909,0.01917 0,0 0.033,-0.01162 -0.018,0.235047 0.3066,0.57547 0.6641,0.904274 1.0215,1.233082 0.2405,0.391758 0.4809,0.783512 1.036,1.72187 0.3948,1.765198 0.475,2.983795 0.5552,4.2024 -0.1146,0.129807 -0.2292,0.259613 -0.6944,0.682122 -0.4667,0.773529 -0.5829,1.254341 -0.699,1.735153 -6.5672,3.38726 -13.0784,6.889351 -19.7184,10.127586 -5.9392,2.896492 -12.0203,5.502007 -18.5283,8.622292 -1.5597,1.009315 -2.63,1.632263 -3.7003,2.255203 -10.9961,5.02742 -21.9922,10.05486 -33.6794,15.145889 -1.6469,0.66514 -2.6028,1.26668 -3.5586,1.86822 0.1798,0.32839 0.3596,0.65677 0.5394,0.98517 32.7247,0 65.4494,0 98.1741,0 0,0 -0.069,0.0263 0.148,0.26653 0.8695,0.4371 1.5219,0.63393 2.1744,0.83077 0,0 0.2135,0.0659 0.351,0.33979 0.6679,0.73199 1.1983,1.1901 1.7288,1.6482 0.025,1.40302 0.05,2.80602 0.059,4.87335 -0.274,1.13641 -0.532,1.60851 -0.7899,2.08062 -0.07,0.17587 -0.1407,0.35174 -0.5416,0.86508 -0.7841,0.62655 -1.2375,0.91564 -1.6909,1.20473 -1.5903,0.76339 -3.1805,1.5268 -5.2409,2.66324 -1.5769,0.99655 -2.6837,1.62005 -3.7904,2.24355 -11.934,5.47455 -23.8645,10.9567 -35.8044,16.41825 -2.9494,1.34912 -5.9295,2.63133 -9.3516,4.34718 -1.1422,0.6567 -1.8281,0.91051 -2.514,1.16431 0,0 -0.319,0.11769 -0.5902,0.25731 -0.4964,0.29103 -0.608,0.50259 -0.606,0.77431 -5.1837,2.31678 -10.3673,4.63356 -16.2597,7.04252 -1.3043,0.46875 -1.8998,0.84531 -3.6126,1.92844 34.019,0 66.7252,0 99.4313,0 1.4525,1.47015 2.9049,2.94031 4.415,5.12625 0.093,1.46463 0.1275,2.21346 0.1625,2.96228 -0.8511,4.01485 -4.1927,5.43501 -7.3564,7.01202 -1.4295,0.71259 -2.9198,1.30326 -4.9802,2.10021 -1.0361,0.41276 -1.4745,0.67454 -1.913,0.93631 -0.1734,0.005 -0.3468,0.01 -1.0405,0.13975 -1.0114,0.68038 -1.5025,1.23529 -1.9935,1.79018 -8.6048,3.87404 -17.2394,7.68346 -25.8067,11.63849 -10.6532,4.91795 -21.2509,9.95625 -32.2574,15.34991 -0.5029,0.85117 -0.621,1.29496 -0.6886,2.18331 0.5255,0.57301 1.0006,0.81425 1.4756,0.81383 31.1257,-0.0273 62.2515,-0.074 93.3773,-0.11911 1.1165,0.67144 2.2329,1.34288 3.7281,2.54837 0.346,2.87123 0.3132,5.20837 0.2805,7.54553 -6.2711,3.14406 -12.5421,6.2881 -19.2872,9.82632 -1.5058,0.98322 -2.5376,1.57228 -3.5694,2.16136 -2.2545,1.01847 -4.5091,2.03693 -7.3243,3.19881 -0.92,0.36258 -1.2794,0.58176 -1.6389,0.80093 0,2e-5 -0.2793,0.0855 -0.5382,0.22008 -0.4978,0.29288 -0.6204,0.51543 -0.6264,0.80226 -10.8718,5.008 -21.7436,10.01601 -33.1903,15.16365 -0.957,0.37278 -1.3392,0.6059 -1.7214,0.83901 0,0 -0.2225,0.0312 -0.4741,0.16588 -0.5063,0.31649 -0.6735,0.55877 -0.7533,0.86155 -2.1815,1.61321 -6.5294,0.19626 -6.2263,5.24759 1.3456,2.28464 2.297,4.05503 3.2485,5.82541 4.4512,9.89258 8.9025,19.78513 13.7377,30.18253 1.3434,2.27569 2.3029,4.0466 3.2623,5.81747 0.8659,2.23047 1.7317,4.46094 2.8969,7.24045 0.3308,1.2692 0.3624,1.98935 0.394,2.7095 -6.99,3.43836 -13.98,6.87671 -21.4668,10.70298 -1.604,1.01675 -2.7112,1.64566 -3.8183,2.27456 -2.9059,1.12754 -5.8117,2.2551 -9.1532,3.78314 -1.0875,0.63147 -1.7393,0.86243 -2.391,1.09336 0,0 -0.4132,0.2084 -0.713,0.36099 -0.4892,0.28595 -0.5718,0.46805 -0.5474,0.69891 z"
   id="path4"
   style="stroke:#000000;stroke-width:4.7;stroke-dasharray:none;stroke-opacity:1;fill:#fbaa1b;fill-opacity:1" /><path
   fill="#fbdf1b"
   opacity="1"
   stroke="none"
   d="m 496.88406,323.83275 c 6.58882,2.9318 13.17765,5.86359 20.36646,8.93621 1.04461,0.3982 1.48933,0.65556 1.93406,0.91298 3.77995,1.62801 7.55991,3.25602 11.97279,5.01088 1.0904,0.66371 1.54789,1.20059 2.00537,1.73748 7.59552,3.27228 15.18822,6.55116 22.79034,9.80795 0.87813,0.37611 1.80864,0.62965 3.16648,0.76998 0.58782,-0.49518 0.82912,-0.62549 1.17555,-0.56091 0,0 0.0883,-0.30326 0.23044,-0.59509 0.31255,-0.53095 0.53991,-0.68887 0.82368,-0.76554 1.89456,-4.12421 3.78902,-8.24847 5.58138,-12.81557 0.34295,-1.048 0.78809,-1.65317 1.23312,-2.25831 1.5767,-3.46533 3.15339,-6.93061 4.6369,-10.85478 0.32599,-1.31032 0.74528,-2.16184 1.16456,-3.01335 0,0 0.0282,-0.22274 0.15952,-0.47585 0.3101,-0.51014 0.55031,-0.6804 0.852,-0.76391 1.57206,-3.45236 3.14401,-6.90468 4.6208,-10.7983 0.34282,-1.04143 0.78092,-1.64161 1.21892,-2.24175 0.92639,-1.79093 1.85277,-3.5819 2.6577,-5.8368 0.96834,-0.72995 2.05813,-0.99594 3.14791,-1.26193 7.25556,3.24515 14.51109,6.4903 22.34661,9.86775 0.96735,0.3627 1.35469,0.59306 1.74204,0.82345 0,0 0.22298,0.0284 0.47615,0.16004 0.5102,0.31023 0.68046,0.55042 0.76394,0.85221 2.90266,1.07945 5.80532,2.15893 9.20547,3.61763 1.61518,0.99319 2.73287,1.60717 3.85056,2.22109 2.57666,0.9959 5.15334,1.9918 8.24619,3.11311 0.8281,0.31012 1.14001,0.4948 1.45192,0.67946 0.15669,0.105 0.31338,0.21 0.81926,0.36827 0.6125,0.23455 0.87579,0.41578 1.13911,0.59701 0,0 0.37478,0.17509 0.66372,0.31807 0.49011,0.28109 0.58682,0.47229 0.57908,0.71658 6.0873,2.61822 12.17161,5.24343 18.26324,7.85158 2.76341,1.18311 5.32668,3.41289 8.59346,0.84366 3.30127,-2.59636 3.67374,-5.73058 2.09195,-9.81082 -0.48621,-0.98465 -0.6387,-1.54937 -0.7912,-2.11405 -0.63418,-0.79166 -1.26837,-1.58334 -2.31284,-2.74643 -1.12219,-0.99347 -1.8341,-1.61553 -2.54601,-2.23755 -7.79908,-9.37287 -15.59817,-18.74576 -23.77765,-28.52913 -0.76264,-0.98749 -1.1449,-1.56448 -1.52714,-2.14152 -0.39589,-0.46789 -0.79179,-0.93576 -1.47873,-1.77747 -0.6145,-0.53613 -0.74915,-0.79614 -0.69505,-1.15384 0,0 -0.22204,-0.0394 -0.50752,-0.19411 -0.68033,-0.71645 -1.0752,-1.27825 -1.47008,-1.84008 -0.37052,-0.46884 -0.74104,-0.9377 -1.35659,-1.8624 -0.24502,-0.45586 -0.11285,-0.93013 -0.11285,-0.93013 0,0 10e-4,-0.0619 -0.29581,-0.0613 -0.93905,-0.99855 -1.58153,-1.99766 -2.22398,-2.99679 -1.93746,-2.34126 -3.87493,-4.68249 -6.39006,-7.17799 -0.96573,-0.70748 -1.35379,-1.26064 -1.74183,-1.81382 -0.71705,-0.79139 -1.43411,-1.58277 -2.38287,-2.87443 -0.17661,-0.66171 -0.12154,-0.82318 -0.0665,-0.9846 0,0 0.0209,-0.0312 -0.26359,0.0135 -0.63838,-0.34005 -0.99222,-0.72474 -1.34604,-1.10945 -2.16448,-2.99054 -4.32898,-5.98108 -7.28992,-10.07201 6.87526,3.01279 12.55061,5.49978 18.86523,8.10972 1.10073,0.66433 1.56223,1.20568 2.02374,1.74701 3.47074,1.32462 6.94146,2.64922 11.04709,4.10221 1.08705,0.6615 1.53922,1.19464 1.99137,1.72778 6.57785,2.92079 13.15569,5.84161 20.31603,8.89408 0.97199,0.36396 1.36146,0.59631 1.75095,0.82865 0,0 0.22299,0.0285 0.47617,0.16007 0.5102,0.31026 0.68047,0.55048 0.76399,0.85224 2.90093,1.07837 5.80185,2.15675 9.19953,3.61587 1.58036,0.99176 2.66395,1.60277 3.74753,2.21376 7.57145,2.16187 8.9342,1.75692 12.19288,-4.32282 6.8e-4,-1.73714 -0.10279,-2.74351 -0.20615,-3.7499 -2.97827,-4.07566 -5.95655,-8.15129 -9.32518,-12.62813 -0.76873,-0.65368 -1.14712,-0.90615 -1.5255,-1.15862 -1e-5,0 -0.31983,-0.16024 -0.6371,-0.33493 -0.67557,-0.69763 -1.03385,-1.22051 -1.39214,-1.74339 -0.11215,-0.43145 -0.22428,-0.86289 -0.61155,-1.7212 -0.45986,-0.67499 -0.64458,-0.92309 -0.8293,-1.17119 0,0 -0.0327,3.8e-4 -0.32066,0.0631 -0.63126,-0.33975 -0.9746,-0.74221 -1.31792,-1.14468 -3.41033,-4.07106 -6.82066,-8.14214 -10.5798,-12.64174 -0.76715,-0.98871 -1.18549,-1.54889 -1.60384,-2.10908 -10e-6,0 -0.28783,-0.11223 -0.59325,-0.27789 -0.66661,-0.70427 -1.02779,-1.24286 -1.38896,-1.78146 -1.72937,-2.10497 -3.45875,-4.20997 -5.47503,-6.80576 -0.23604,-0.65056 -0.18517,-0.81027 -0.13432,-0.96997 0,0 0.004,-0.0482 -0.24662,-0.003 -0.59467,-0.35202 -0.93793,-0.74909 -1.28122,-1.14615 -3.58532,-4.5496 -7.17886,-9.09277 -10.75014,-13.65337 -0.89227,-1.13942 -1.71283,-2.33499 -2.99214,-3.89245 -1.13688,-1.01168 -1.84799,-1.63565 -2.55909,-2.25963 -1.54525,-2.03037 -3.09047,-4.06075 -4.63572,-6.09114 0.33488,-0.49323 0.66975,-0.98644 1.00463,-1.47968 15.38541,7.01686 30.77083,14.03371 46.70698,21.18623 0.89796,0.34133 1.24517,0.547 1.5924,0.75267 0,0 0.28015,0.0817 0.54079,0.21318 0.50149,0.28715 0.62741,0.50837 0.63845,0.79515 7.01941,2.97225 14.10846,5.79293 21.03199,8.97387 4.12352,1.89453 6.21512,-0.017 8.54419,-3.05316 2.27729,-2.96868 1.90054,-5.05202 -0.43606,-7.76581 -4.60937,-5.35343 -8.86328,-11.01292 -13.60826,-16.98191 -0.81189,-1.02426 -1.27972,-1.61246 -1.74755,-2.20064 0,0 -10e-4,-0.0436 -0.29993,0.0213 -0.65615,-0.3186 -1.01372,-0.70203 -1.37129,-1.08547 -3.0735,-3.74384 -6.14699,-7.48769 -9.59609,-11.67399 -1.12562,-1.35437 -1.87563,-2.26631 -2.62563,-3.17824 -3.06625,-4.06652 -6.13252,-8.13301 -9.57568,-12.61862 -0.55549,-0.66837 -0.73409,-0.91766 -0.91269,-1.16693 0,0 -0.0317,-0.0218 -0.31955,0.0507 -0.63643,-0.32236 -0.98498,-0.71727 -1.33352,-1.11219 -5.43304,-6.37671 -10.8661,-12.75343 -16.60815,-19.55881 0.14352,-0.6832 0.59602,-0.93774 1.04853,-1.19227 6.10563,2.48906 12.24691,4.89504 18.30505,7.49481 4.43572,1.90353 8.76221,4.0616 13.78243,6.22444 1.14348,0.66809 1.64195,1.21794 2.14043,1.76779 7.07966,3.11577 14.15976,6.23051 21.23885,9.34758 5.23966,2.30715 10.478,4.61731 16.28938,7.2097 1.65132,0.38651 2.73018,0.48945 3.80905,0.59239 0.19929,-0.13834 0.39858,-0.27672 0.86962,-0.80836 0.43555,-0.61728 0.64653,-0.67763 0.9047,-0.57427 7.06214,-4.46539 1.78447,-9.03189 -0.32076,-13.97746 -1.13616,-1.02472 -1.84039,-1.64086 -2.5446,-2.25701 -0.43429,-0.75626 -0.86858,-1.51254 -1.62507,-2.67005 -1.01644,-1.0259 -1.71067,-1.65053 -2.4049,-2.27517 -3.41752,-4.07439 -6.83506,-8.14878 -10.5869,-12.65032 -0.73519,-0.97376 -1.13607,-1.52036 -1.53695,-2.06697 0,0 -0.33633,-0.17903 -0.6558,-0.38179 -0.34084,-0.66485 -0.36222,-1.12692 -0.38362,-1.589 -1.45398,-1.57384 -2.90798,-3.14769 -4.54188,-5.06104 -0.17989,-0.33952 -0.18093,-0.59742 -0.18093,-0.59742 -0.15077,-0.1055 -0.30155,-0.21099 -0.8989,-0.53825 -0.82462,-0.77137 -1.20265,-1.32093 -1.58069,-1.87049 -4.75709,-6.04588 -9.51417,-12.09177 -14.70069,-18.52468 -1.14465,-1.01358 -1.85987,-1.64012 -2.5751,-2.26667 -0.69537,-0.79064 -1.39073,-1.58128 -2.32671,-2.75138 -0.56967,-0.50569 -0.67513,-0.73465 -0.55699,-1.06635 0,0 -0.36523,-0.20668 -0.70912,-0.39099 -0.69419,-0.69405 -1.04449,-1.20377 -1.3948,-1.71348 -4.43674,-5.40085 -8.87349,-10.801699 -13.59151,-16.694338 -0.28127,-0.49181 -0.14092,-0.968135 -0.14092,-0.968135 0,0 0.004,-0.04999 -0.24729,-0.0045 -0.59516,-0.355296 -0.9385,-0.756041 -1.28185,-1.156787 -1.79198,-2.392613 -3.58397,-4.785234 -5.72245,-7.611935 -0.81637,-1.025122 -1.28623,-1.616172 -1.75609,-2.207222 0,0 0.0164,-0.05459 -0.28625,0.01683 -0.65775,-0.31412 -1.01283,-0.699643 -1.36791,-1.085167 -3.23501,-3.886717 -6.51563,-7.737175 -9.66221,-11.694206 -0.55438,-0.697159 -0.54819,-1.840076 -0.68261,-3.280141 0.30796,-0.832958 0.49767,-1.162901 0.68739,-1.492845 0.091,-0.16289 0.18201,-0.325788 0.36509,-0.847467 0.26334,-0.618987 0.43462,-0.879185 0.60591,-1.139384 1.9508,-3.948895 3.90161,-7.89779 5.72897,-12.295 0.3234,-1.054681 0.77024,-1.661047 1.21709,-2.267413 1.63047,-3.776624 3.26093,-7.553248 4.68007,-11.822075 0.0463,-1.315532 0.30403,-2.138859 0.56171,-2.962186 -0.12741,-0.844133 -0.25481,-1.688261 -0.57227,-3.084633 -0.0795,-1.420178 0.0312,-2.288123 0.1417,-3.156064 -1.85211,-2.599714 -3.70423,-5.199425 -6.13043,-8.026502 -1.06826,-0.769402 -1.56243,-1.311439 -2.0566,-1.853476 -0.4498,-0.02059 -0.8996,-0.04117 -1.94468,-0.197192 -1.04746,-0.445792 -1.49965,-0.756149 -1.95184,-1.066505 -0.94405,-0.01004 -1.8881,-0.02007 -3.3813,-0.418842 -1.59839,-0.319915 -2.64762,-0.251102 -3.69685,-0.182287 -9.84915,1.920736 -13.11398,10.071133 -16.83313,17.791597 -0.6348,1.317744 -1.26907,2.635741 -2.05256,4.492597 -0.33874,0.86416 -0.52855,1.189343 -0.71836,1.514523 0,0 -0.12002,0.363396 -0.27064,0.687563 -0.31837,0.556408 -0.54079,0.709265 -0.81785,0.782736 -1.13659,2.97631 -2.27316,5.952618 -3.6689,9.485483 -0.90136,1.90925 -1.54357,3.261944 -2.18579,4.614642 0,0 -0.002,-0.06613 -0.22222,0.285 -2.20545,0.478311 -4.18957,0.694205 -6.17612,0.719611 -42.14543,0.539003 -84.29119,1.045507 -126.43618,1.613787 -1.93823,0.02611 -3.86934,0.569606 -5.80374,0.872132 -0.22123,0.03948 -0.44246,0.07897 -1.17402,0.304316 -0.67039,0.13439 -0.83054,0.08291 -0.99059,0.03144 0,0 -0.0331,-0.01121 0.0209,0.234806 -0.29945,0.579224 -0.65285,0.912431 -1.00615,1.245641 -0.23563,0.394707 -0.47116,0.789409 -1.01459,1.734571 -0.3729,1.769953 -0.438,2.98945 -0.5031,4.208955 0.1162,0.128378 0.2324,0.256754 0.70279,0.673468 0.47625,0.767689 0.5984,1.247025 0.72044,1.726361 6.60866,3.305652 13.16274,6.726819 19.84234,9.882555 5.97463,2.8227 12.08754,5.352688 18.63369,8.392118 1.57208,0.989917 2.65001,1.599559 3.72795,2.209194 11.05753,4.890824 22.11506,9.781667 33.86443,14.727526 1.65501,0.64468 2.61829,1.23434 3.58147,1.82399 -0.17572,0.33059 -0.35144,0.66118 -0.52716,0.99178 -32.72219,0.40536 -65.44438,0.81073 -98.16656,1.21609 0,0 0.0693,0.0254 -0.14469,0.26835 -0.86402,0.44783 -1.51393,0.65273 -2.16394,0.85764 0,0 -0.21267,0.0685 -0.34677,0.34411 -0.65878,0.74021 -1.18346,1.20485 -1.70825,1.66949 -0.008,1.40322 -0.0152,2.80642 10e-4,4.87371 0.28806,1.13292 0.55189,1.60179 0.81561,2.07067 0.0722,0.17499 0.14505,0.34997 0.55228,0.85831 0.7918,0.61678 1.24875,0.90024 1.70569,1.18369 1.59964,0.74363 3.19917,1.48728 5.27349,2.59811 1.58912,0.97694 2.70356,1.58669 3.8179,2.19643 12.0009,5.3263 23.99839,10.66025 36.00503,15.97348 2.96588,1.31248 5.96164,2.55767 9.40473,4.231 1.15025,0.6425 1.83924,0.8878 2.52823,1.13308 0,0 0.32043,0.11373 0.59334,0.24998 0.49997,0.28486 0.61418,0.49502 0.61555,0.76675 5.212,2.25239 10.4239,4.50478 16.34569,6.84056 1.31,0.45256 1.91012,0.82172 3.63621,1.88355 -34.01639,0.42139 -66.72008,0.82653 -99.42367,1.23167 -1.43418,1.48802 -2.86826,2.97606 -4.35117,5.18054 -0.0749,1.46567 -0.10007,2.21487 -0.12579,2.96407 0.90077,4.004 4.2597,5.38265 7.44269,6.92035 1.43822,0.69483 2.93572,1.267 5.00584,2.03836 1.04113,0.3999 1.48274,0.65623 1.92445,0.91254 0.17345,0.003 0.3469,0.006 1.04215,0.12685 1.01975,0.6678 1.51769,1.21659 2.01552,1.76535 8.65213,3.76716 17.33326,7.46933 25.94889,11.31793 10.7133,4.78561 21.3726,9.69225 32.44507,14.94915 0.5134,0.84488 0.63699,1.28717 0.71559,2.17462 -0.51836,0.57947 -0.99044,0.82658 -1.46541,0.83204 -31.12365,0.35826 -62.24764,0.69713 -93.37161,1.03758 -1.10809,0.68522 -2.21609,1.37044 -3.69624,2.59436 -0.31041,2.87529 -0.24866,5.21185 -0.18702,7.54842 6.30957,3.06614 12.61903,6.13226 19.40745,9.58665 1.51786,0.9645 2.55688,1.54073 3.59589,2.11698 2.26695,0.99047 4.53399,1.98092 7.36337,3.10784 0.92442,0.35116 1.2865,0.56587 1.64869,0.78057 0,2e-5 0.28034,0.082 0.54089,0.21339 0.50139,0.2867 0.62673,0.50771 0.63629,0.79444 10.933,4.87295 21.866,9.7459 33.37558,14.75136 0.96155,0.36089 1.34661,0.58926 1.73167,0.81762 0,0 0.22286,0.0284 0.47611,0.15999 0.51019,0.3102 0.68037,0.55039 0.76392,0.85216 2.20131,1.58606 6.53133,0.11536 6.29082,5.17006 -1.31719,2.30113 -2.24659,4.08317 -3.17609,5.8652 -4.32832,9.94696 -8.65673,19.89389 -13.36277,30.35039 -1.31511,2.29215 -2.2526,4.07481 -3.18999,5.85743 -0.8382,2.24103 -1.67631,4.48205 -2.80699,7.27578 -0.31505,1.2732 -0.33773,1.99369 -0.3604,2.71417 7.03205,3.35151 14.06411,6.70301 21.59773,10.43625 1.61647,0.9968 2.73138,1.61195 3.84618,2.22709 2.91965,1.09145 5.83919,2.18293 9.19936,3.66946 1.09524,0.61795 1.74985,0.84082 2.40436,1.06366 0,0 0.41575,0.20327 0.71742,0.35213 0.4927,0.27987 0.57755,0.46093 0.55601,0.69208 z"
   id="path4-4"
   style="stroke:#000000;stroke-width:4.7;stroke-dasharray:none;stroke-opacity:1;fill:#fbaa1b;fill-opacity:1" />
<path
   fill="#fbdf1b"
   opacity="1"
   stroke="none"
   d="m 528.50025,350.46912 c 6.4756,3.02073 12.9512,6.04148 20.0277,9.12976 1.0573,0.32911 1.5136,0.59067 1.9699,0.85221 4.4528,2.01544 8.9057,4.03085 14.01,6.18643 1.7661,0.71298 2.8807,1.28583 3.9952,1.85867 0.7782,0.40909 1.5564,0.81818 2.8049,1.48691 1.3743,0.6518 2.2782,1.04392 3.1821,1.43604 0.4422,0.1043 0.8844,0.20864 1.8044,0.5834 1.3878,0.67426 2.2977,1.07803 3.2076,1.48181 3.0933,1.39881 6.1867,2.79764 9.8039,4.48483 2.0802,1.02445 3.6364,1.76053 5.1928,2.49665 5.4274,2.42193 10.7081,5.28317 16.3186,7.15664 7.3093,2.44083 11.7867,7.2677 12.4878,14.59952 0.6543,6.84241 -3.0235,12.09708 -9.8199,15.53076 -3.5286,0.32731 -6.2768,0.95105 -9.0253,0.95231 -119.4461,0.0539 -238.8922,0.042 -358.3383,0.0646 -33.8049,0.006 -67.6099,0.0943 -101.41479,0.14487 -7.35829,-1.83588 -10.944,-7.5025 -11.88412,-14.11469 -0.51232,-3.60309 2.12981,-7.65469 3.73135,-11.81244 0.56844,-0.51083 0.64488,-0.7485 0.61141,-1.02145 6.01288,-2.88699 12.03956,-5.74582 18.02771,-8.68326 1.28993,-0.63272 2.44075,-1.54907 4.13299,-2.22268 1.72173,-0.68717 2.96605,-1.48645 4.21045,-2.28574 3.4482,-1.29968 6.8965,-2.59934 10.9786,-4.15387 1.9534,-1.08789 3.2729,-1.92099 4.5924,-2.75409 5.5713,-2.30859 11.1657,-4.56345 16.7074,-6.94113 5.3726,-2.30499 10.691,-4.73621 16.6372,-7.3241 1.0857,-0.75027 1.5674,-1.28842 2.0491,-1.82657 3.4549,-1.31488 6.9097,-2.62976 10.9885,-4.1741 1.4064,-0.81003 2.1888,-1.39056 2.9713,-1.97113 7.369,-3.14181 14.7721,-6.20648 22.0964,-9.44925 6.13,-2.71399 12.1677,-5.63617 18.8681,-8.62076 1.0713,-0.69177 1.5206,-1.22894 1.97,-1.76614 5.1456,-1.99262 10.2912,-3.98523 16.055,-6.16583 1.1092,-0.74286 1.6003,-1.29776 2.0914,-1.85269 4.1131,-1.63343 8.2263,-3.26685 12.9562,-5.14359 1.4083,-0.81274 2.1998,-1.38214 2.9914,-1.95151 2.9561,-1.13754 5.9122,-2.27508 9.3121,-3.77707 1.4456,-0.93795 2.4473,-1.51156 3.4491,-2.08514 7.2023,-2.99936 14.4045,-5.99872 22.2368,-9.23303 1.7004,-1.08002 2.7707,-1.92505 3.841,-2.77008 1.4868,-0.37644 2.9736,-0.75287 5.088,-1.30378 1.0971,-0.69372 1.5666,-1.21301 2.0361,-1.73226 0.4658,-0.0274 0.9315,-0.0548 2.0027,-0.22635 1.0909,-0.68866 1.5763,-1.23319 2.0617,-1.77771 4.7491,-1.69056 9.4982,-3.38111 14.9627,-5.13337 1.6981,-0.48602 2.6808,-0.9103 3.6636,-1.33459 1.9156,0.12082 3.8313,0.24164 6.4738,0.38416 1.7783,0.27734 2.8298,0.53295 3.8814,0.7886 5.0731,1.75598 10.1462,3.51193 15.7308,5.52899 1.0984,0.66635 1.6852,1.0716 2.2721,1.47684 1.7581,0.74606 3.5162,1.49209 5.7947,2.52624 2.08,1.00382 3.6396,1.71952 5.1991,2.43521 8.1197,3.68436 16.2394,7.36875 24.9761,11.16953 1.0891,0.37433 1.5612,0.63229 2.0334,0.89023 2.7816,1.3277 5.5632,2.65539 8.8957,4.01468 0.5509,0.0315 0.9311,-0.0633 0.9311,-0.0633 0,0 0.1595,0.27484 0.3307,0.54126 0.5419,0.23633 0.9126,0.20624 1.2833,0.17615 0.1403,0.13455 0.2807,0.26914 0.6399,0.76224 0.219,0.35858 0.5099,0.58069 0.5099,0.58069 0,0 0.3648,-0.0347 0.3648,-0.0347 2.4355,1.07916 4.871,2.15832 7.8325,3.5238 2.0868,1.01496 3.6475,1.74356 5.2082,2.47214 1.7596,0.7475 3.5193,1.49499 5.799,2.52707 2.0785,1.00314 3.637,1.72168 5.1954,2.44024 6.0938,2.75684 12.1876,5.51368 18.784,8.52848 1.404,0.64889 2.3056,1.03988 3.2072,1.43088 0.4428,0.10842 0.8857,0.21682 1.8077,0.59536 1.3893,0.68009 2.2993,1.09006 3.2094,1.50006 1.1731,0.69016 2.3462,1.38034 4.0861,2.10358 1.0121,0.29529 1.4574,0.5575 1.9026,0.81973 0.8098,0.37189 1.6195,0.74378 3.0534,1.2262 1.7348,0.68573 2.8455,1.26089 3.9562,1.83606 2.4243,1.07642 4.8487,2.15283 7.7772,3.4891 1.41,0.67106 2.3155,1.08225 3.2211,1.49347 z"
   id="path5"
   style="stroke:#000000;stroke-width:4.7;stroke-dasharray:none;stroke-opacity:1;fill:#fbaa1b;fill-opacity:1" />
<path
   fill="#6b6b6b"
   opacity="1"
   stroke="none"
   d="m 144.92131,419.12867 c 33.59044,-0.26465 67.39544,-0.35257 101.20034,-0.35898 119.4461,-0.0227 238.8922,-0.0108 358.3383,-0.0646 2.7485,-10e-4 5.4967,-0.625 8.6779,-0.87629 -2.5468,0.69544 -5.5258,1.84137 -8.506,1.84452 -81.5829,0.0862 -163.1659,0.048 -244.7489,0.0473 -68.7628,-5.8e-4 -137.5256,0.0247 -206.28845,0.0136 -2.8196,-4.6e-4 -5.63916,-0.25519 -8.67319,-0.60556 z"
   id="path6" />
<path
   fill="#555555"
   opacity="1"
   stroke="none"
   d="m 582.48835,429.80305 c -21.1409,-0.0176 -42.2818,-0.0499 -63.4227,-0.0504 -114.8636,-0.003 -229.7271,0.002 -345.2639,0.0287 -0.6733,0.0239 -1.0877,-0.002 -1.0877,-0.002 1.4409,-0.42267 2.8817,-1.21509 4.3227,-1.21549 134.1933,-0.0371 268.3867,-0.0147 402.58,0.0215 1.1443,3.3e-4 2.2885,0.24099 3.3635,0.7944 -0.069,0.42493 -0.4919,0.42377 -0.4919,0.4238 z"
   id="path7" />
<path
   fill="#b2b2b2"
   opacity="1"
   stroke="none"
   d="m 192.92275,796.16956 c 0.699,-0.32129 1.6956,-0.41589 2.6923,-0.41589 122.2826,0.002 244.5653,0.0115 367.2974,0.0812 -1.3003,0.34576 -3.05,0.87988 -4.7998,0.88043 -119.8083,0.0393 -239.6165,0.0371 -359.4247,0.0229 -1.8225,-2.5e-4 -3.6451,-0.19428 -5.7652,-0.56867 z"
   id="path8" />
<path
   fill="#3b3b3b"
   opacity="1"
   stroke="none"
   d="m 172.61725,430.23661 c 0.097,-0.45782 0.5112,-0.43143 0.7185,-0.43436 0.1962,112.55744 0.1872,225.1178 0.1635,337.67817 -6e-4,3.16009 -0.1573,6.32012 -0.2129,9.86322 -0.2405,-1.55463 -0.7443,-3.49219 -0.7449,-5.42988 -0.033,-113.7398 -0.025,-227.47955 0.076,-341.67715 z"
   id="path9" />
<path
   fill="#3d3d3d"
   opacity="1"
   stroke="none"
   d="m 582.49335,430.26649 c -0.01,-0.46347 0.4176,-0.46231 0.6282,-0.47687 0.2695,2.806 0.3796,5.62656 0.3795,8.44708 0,112.18537 -0.02,224.37067 -0.1119,337.01898 -0.3465,-1.26983 -0.8486,-3.00256 -0.8492,-4.73541 -0.04,-113.26343 -0.039,-226.52685 -0.047,-340.25378 z"
   id="path10" />

<path
   fill="#565656"
   opacity="1"
   stroke="none"
   d="m 296.91245,106.32273 c -32.559,0.38398 -65.2837,0.38398 -98.0084,0.38398 -0.1798,-0.32839 -0.3596,-0.65677 -0.5394,-0.98516 0.9558,-0.60154 1.9117,-1.20308 3.1122,-1.77179 2.461,0.4944 4.6759,1.34994 6.8937,1.35765 27.3235,0.095 54.6474,0.0536 81.9711,0.0935 2.1353,0.003 4.2702,0.35052 6.5708,0.92187 z"
   id="path12" />
<path
   fill="#a2a2a2"
   opacity="1"
   stroke="none"
   d="m 274.12955,57.210759 c -1.8873,0.09447 -3.825,-0.425041 -5.7634,-0.427166 -42.1488,-0.04618 -84.2976,-0.03058 -126.44647,-0.04748 -1.98671,-7.97e-4 -3.97336,-0.192096 -6.21761,-0.641472 44.27178,-0.34605 88.80118,-0.357189 133.33038,-0.298671 1.6827,0.0022 3.3643,0.679226 5.0971,1.414791 z"
   id="path13" />

<path
   fill="#7f7f7f"
   opacity="1"
   stroke="none"
   d="m 319.93735,155.34159 c -32.465,0.31331 -65.1712,0.31331 -99.1902,0.31331 1.7128,-1.08313 2.3083,-1.45969 3.2627,-1.79283 2.0865,0.31386 3.8135,0.81639 5.5417,0.8201 28.2329,0.0606 56.466,0.0531 84.699,0.0817 1.8154,0.002 3.6305,0.17238 5.6868,0.57776 z"
   id="path15" />


<path
   fill="#3d3d3d"
   opacity="1"
   stroke="none"
   d="m 343.35905,205.20158 c -30.9123,0.43182 -62.0381,0.4786 -93.1638,0.50586 -0.475,4.2e-4 -0.9501,-0.24082 -1.2208,-0.85694 0.3175,-0.61769 0.4306,-0.74776 0.5438,-0.87781 1.8052,0.14011 3.6101,0.4002 5.4155,0.40238 27.7609,0.0337 55.5219,0.0271 83.2828,0.0588 1.6431,0.002 3.2859,0.24832 5.1425,0.76775 z"
   id="path18" />
<path
   fill="#ffffff"
   opacity="1"
   stroke="none"
   d="m 347.85325,215.47733 c -0.2394,-2.13226 -0.2066,-4.4694 -0.2316,-7.23871 2.4039,1.88549 2.3596,4.39153 0.2316,7.23871 z"
   id="path19" />

<path
   fill="#ffffff"
   opacity="1"
   stroke="none"
   d="m 652.42005,17.172818 c -1.3603,0.283247 -2.8028,0.230749 -4.5759,0.249294 1.2776,-0.147652 2.8855,-0.366344 4.5759,-0.249294 z"
   id="path21" />
<path
   fill="#ffffff"
   opacity="1"
   stroke="none"
   d="m 178.79195,371.82325 c -1.0038,0.87619 -2.3233,1.70929 -3.9612,2.60516 1.0029,-0.84091 2.3242,-1.74456 3.9612,-2.60516 z"
   id="path22" />
<path
   fill="#ffffff"
   opacity="1"
   stroke="none"
   d="m 594.44005,380.16383 c -1.4977,-0.43412 -3.0539,-1.1702 -4.7605,-2.1969 1.4671,0.43789 3.0845,1.16641 4.7605,2.1969 z"
   id="path23" />
<path
   fill="#ffffff"
   opacity="1"
   stroke="none"
   d="m 407.91555,209.83213 c 0.3335,0.98729 0.3502,2.04837 0.3327,3.5058 -0.2393,-0.87978 -0.4445,-2.15589 -0.3327,-3.5058 z"
   id="path24" />
<path
   fill="#ffffff"
   opacity="1"
   stroke="none"
   d="m 275.45745,260.44422 c -0.9291,-1.41952 -1.8805,-3.18991 -2.8966,-5.3114 0.9148,1.41943 1.8945,3.18997 2.8966,5.3114 z"
   id="path25" />
<path
   fill="#ffffff"
   opacity="1"
   stroke="none"
   d="m 292.45725,296.44379 c -0.9368,-1.41958 -1.8963,-3.19049 -2.9203,-5.31427 0.9228,1.41907 1.9102,3.19101 2.9203,5.31427 z"
   id="path26" />
<path
   fill="#ffffff"
   opacity="1"
   stroke="none"
   d="m 477.43625,327.14521 c -1.4993,-0.41757 -3.0578,-1.13611 -4.7698,-2.14362 1.4679,0.42157 3.0892,1.13208 4.7698,2.14362 z"
   id="path27" />
<path
   fill="#ffffff"
   opacity="1"
   stroke="none"
   d="m 413.43615,298.14503 c -1.5003,-0.41452 -3.0599,-1.13022 -4.7728,-2.1352 1.4689,0.41855 3.0913,1.12632 4.7728,2.1352 z"
   id="path28" />
<path
   fill="#ffffff"
   opacity="1"
   stroke="none"
   d="m 466.44215,322.1753 c -1.5019,-0.42499 -3.0626,-1.15359 -4.7762,-2.17242 1.4705,0.42947 3.094,1.14914 4.7762,2.17242 z"
   id="path29" />

<path
   fill="#ffffff"
   opacity="1"
   stroke="none"
   d="m 373.93735,285.11481 c -0.7767,0.61564 -1.7594,1.03992 -3.0836,1.42469 0.7315,-0.56504 1.8045,-1.09055 3.0836,-1.42469 z"
   id="path31" />
<path
   fill="#ffffff"
   opacity="1"
   stroke="none"
   d="m 384.43495,286.17414 c -0.9879,0.0491 -2.0394,-0.20648 -3.3618,-0.64831 0.9188,-0.01 2.1085,0.16696 3.3618,0.64831 z"
   id="path32" />
<path
   fill="#ffffff"
   opacity="1"
   stroke="none"
   d="m 317.93615,308.7916 c -0.6871,0.59931 -1.6888,1.17292 -3.0076,1.76279 0.6863,-0.5853 1.6896,-1.18689 3.0076,-1.76279 z"
   id="path33" />
<path
   fill="#ffffff"
   opacity="1"
   stroke="none"
   d="m 344.01075,296.82526 c -0.7524,0.83399 -1.8227,1.67902 -3.1941,2.58246 0.758,-0.81823 1.8171,-1.69482 3.1941,-2.58246 z"
   id="path34" />
<path
   fill="#ffffff"
   opacity="1"
   stroke="none"
   d="m 69.953533,189.78503 c -0.447,0.88662 -1.18566,1.80778 -2.20642,2.84419 0.45018,-0.85971 1.18247,-1.83469 2.20642,-2.84419 z"
   id="path35" />
<path
   fill="#ffffff"
   opacity="1"
   stroke="none"
   d="m 325.06295,163.68311 c -0.342,-0.6885 -0.3769,-1.43733 -0.3633,-2.5585 0.2557,0.5845 0.463,1.54134 0.3633,2.5585 z"
   id="path36" />
<path
   fill="#ffffff"
   opacity="1"
   stroke="none"
   d="m 719.46205,152.43287 c -0.9216,-0.78793 -1.8626,-1.90622 -2.8781,-3.33777 0.9034,0.79366 1.881,1.90054 2.8781,3.33777 z"
   id="path37" />
<path
   fill="#ffffff"
   opacity="1"
   stroke="none"
   d="m 89.226743,28.927323 c 0.35635,0.694002 0.47767,1.560509 0.32227,2.558432 -0.37026,-0.707699 -0.46378,-1.546813 -0.32227,-2.558432 z"
   id="path38" />
<path
   fill="#ffffff"
   opacity="1"
   stroke="none"
   d="m 568.44825,368.19758 c -1.0597,-0.27423 -2.1743,-0.84708 -3.577,-1.5618 0.9819,0.32648 2.2521,0.79483 3.577,1.5618 z"
   id="path39" />
<path
   fill="#a2a2a2"
   opacity="1"
   stroke="none"
   d="m 135.50273,55.464688 c -0.65227,-0.998493 -1.31119,-2.343128 -1.93851,-4.014534 0.66504,1.004948 1.29845,2.336666 1.93851,4.014534 z"
   id="path40" />
<path
   fill="#ffffff"
   opacity="1"
   stroke="none"
   d="m 517.44715,345.18919 c -1.0559,-0.27781 -2.1666,-0.85297 -3.5638,-1.56992 0.9786,0.32968 2.2439,0.80112 3.5638,1.56992 z"
   id="path41" />
<path
   fill="#ffffff"
   opacity="1"
   stroke="none"
   d="m 163.20505,378.79234 c -0.9128,0.78125 -2.15712,1.58053 -3.54552,2.143 0.9753,-0.86618 2.09462,-1.49557 3.54552,-2.143 z"
   id="path42" />
<path
   fill="#ffffff"
   opacity="1"
   stroke="none"
   d="m 628.16115,38.922268 c 0.087,0.736321 -0.083,1.58714 -0.5469,2.591546 -0.099,-0.723294 0.096,-1.600174 0.5469,-2.591546 z"
   id="path43" />
<path
   fill="#ffffff"
   opacity="1"
   stroke="none"
   d="m 579.45745,373.2074 c -0.8653,-0.12683 -1.7752,-0.5306 -2.8178,-1.20892 0.836,0.12766 1.8046,0.52982 2.8178,1.20892 z"
   id="path44" />

<path
   fill="#ffffff"
   opacity="1"
   stroke="none"
   d="m 574.44625,371.14829 c -0.8601,-0.12127 -1.764,-0.51339 -2.7991,-1.17697 0.8309,0.12106 1.7931,0.51361 2.7991,1.17697 z"
   id="path46" />
<path
   fill="#ffffff"
   opacity="1"
   stroke="none"
   d="m 279.14745,65.08775 c -0.2846,-1.021271 -0.3648,-2.239868 -0.458,-3.832039 0.2121,0.962521 0.4372,2.298615 0.458,3.832039 z"
   id="path47" />
<path
   fill="#ffffff"
   opacity="1"
   stroke="none"
   d="m 22.504873,187.55953 c 0.92069,-0.29361 1.99819,-0.40991 3.41289,-0.52376 -0.86057,0.23533 -2.05833,0.4682 -3.41289,0.52376 z"
   id="path48" />
<path
   fill="#ffffff"
   opacity="1"
   stroke="none"
   d="m 289.82005,123.70337 c 0.7723,-0.60429 1.8791,-1.2278 3.3214,-1.91571 -0.7719,0.58923 -1.8795,1.24286 -3.3214,1.91571 z"
   id="path49" />
<path
   fill="#ffffff"
   opacity="1"
   stroke="none"
   d="m 325.03545,227.66389 c 0.7209,-0.58306 1.7527,-1.17212 3.1052,-1.82309 -0.7176,0.56442 -1.756,1.19073 -3.1052,1.82309 z"
   id="path50" />
<path
   fill="#ffffff"
   opacity="1"
   stroke="none"
   d="m 228.26965,349.46049 c -0.591,0.74939 -1.3734,1.32992 -2.4561,1.96338 0.5547,-0.67545 1.4096,-1.40381 2.4561,-1.96338 z"
   id="path51" />
<path
   fill="#ffffff"
   opacity="1"
   stroke="none"
   d="m 125.9326,275.99647 c -0.38386,0.8623 -1.01391,1.86929 -1.96911,2.86755 0.35756,-0.91348 1.04026,-1.81818 1.96911,-2.86755 z"
   id="path52" />
<path
   fill="#ffffff"
   opacity="1"
   stroke="none"
   d="m 75.910313,284.69395 c 0.74937,-0.60657 1.82531,-1.23096 3.23525,-1.91947 -0.7469,0.59113 -1.8278,1.2464 -3.23525,1.91947 z"
   id="path53" />
<path
   fill="#ffffff"
   opacity="1"
   stroke="none"
   d="m 528.45605,350.19471 c -0.8614,-0.13681 -1.7669,-0.548 -2.8038,-1.23312 0.8323,0.13696 1.7959,0.54782 2.8038,1.23312 z"
   id="path54" />
<path
   fill="#ffffff"
   opacity="1"
   stroke="none"
   d="m 504.45965,339.22291 c -0.8661,-0.13193 -1.7761,-0.5419 -2.8188,-1.22739 0.8366,0.13275 1.8057,0.54102 2.8188,1.22739 z"
   id="path55" />
<path
   fill="#ffffff"
   opacity="1"
   stroke="none"
   d="m 499.44325,337.13612 c -0.8583,-0.12156 -1.7599,-0.51255 -2.7928,-1.17398 0.8289,0.12118 1.7893,0.51284 2.7928,1.17398 z"
   id="path56" />

<path
   fill="#ffffff"
   opacity="1"
   stroke="none"
   d="m 88.922693,35.182751 c 0.4537,0.637692 0.72156,1.457764 0.73189,2.405968 -0.4776,-0.655777 -0.69767,-1.439682 -0.73189,-2.405968 z"
   id="path58" />
<path
   fill="#ffffff"
   opacity="1"
   stroke="none"
   d="m 270.82075,319.70319 c 0.772,-0.60952 1.8792,-1.23843 3.3228,-1.93158 -0.7716,0.59458 -1.8796,1.25342 -3.3228,1.93158 z"
   id="path59" />
<path
   fill="#ffffff"
   opacity="1"
   stroke="none"
   d="m 167.93815,301.75025 c 0.7943,0.2081 1.8873,0.46057 2.7476,0.85578 -0.9714,-0.1753 -1.7102,-0.49332 -2.7476,-0.85578 z"
   id="path60" />
<path
   fill="#ffffff"
   opacity="1"
   stroke="none"
   d="m 129.8109,319.70313 c 0.77403,-0.60867 1.88402,-1.23645 3.3313,-1.92849 -0.77359,0.59365 -1.88446,1.25155 -3.3313,1.92849 z"
   id="path61" />
<path
   fill="#ffffff"
   opacity="1"
   stroke="none"
   d="m 305.30165,314.50068 c -0.6036,0.74823 -1.3951,1.31763 -2.4881,1.93652 0.5658,-0.67212 1.4329,-1.39374 2.4881,-1.93652 z"
   id="path62" />
<path
   fill="#ffffff"
   opacity="1"
   stroke="none"
   d="m 235.92755,88.690671 c 0.7454,-0.606171 1.8157,-1.229119 3.219,-1.916199 -0.7427,0.590378 -1.8184,1.244896 -3.219,1.916199 z"
   id="path63" />
<path
   fill="#ffffff"
   opacity="1"
   stroke="none"
   d="m 108.27935,16.505436 c -0.85283,0.212309 -1.90283,0.156498 -3.34162,0.165465 0.78896,-0.101343 1.9667,-0.267466 3.34162,-0.165465 z"
   id="path64" />
<path
   fill="#ffffff"
   opacity="1"
   stroke="none"
   d="m 26.892823,164.79368 c -0.39008,0.5977 -1.07652,1.23088 -2.06141,1.93362 0.38939,-0.58633 1.07722,-1.24222 2.06141,-1.93362 z"
   id="path65" />
<path
   fill="#ffffff"
   opacity="1"
   stroke="none"
   d="m 22.923193,169.78846 c -0.39894,0.58931 -1.09548,1.21413 -2.08964,1.91026 0.39893,-0.57737 1.09549,-1.22607 2.08964,-1.91026 z"
   id="path66" />
<path
   fill="#ffffff"
   opacity="1"
   stroke="none"
   d="m 672.46585,172.43452 c -0.5779,-0.46933 -1.1716,-1.25658 -1.8364,-2.34162 0.5595,0.47603 1.19,1.24987 1.8364,2.34162 z"
   id="path67" />
<path
   fill="#ffffff"
   opacity="1"
   stroke="none"
   d="m 115.94661,210.78587 c -0.40219,0.5968 -1.10551,1.22953 -2.11092,1.93292 0.40187,-0.58525 1.10584,-1.24112 2.11092,-1.93292 z"
   id="path68" />
<path
   fill="#ffffff"
   opacity="1"
   stroke="none"
   d="m 642.46445,213.4558 c -0.6053,-0.47017 -1.2272,-1.26623 -1.9211,-2.37135 0.5869,0.4758 1.2457,1.26062 1.9211,2.37135 z"
   id="path69" />
<path
   fill="#ffffff"
   opacity="1"
   stroke="none"
   d="m 713.69475,234.96873 c 0.2913,-0.77057 0.7669,-1.36159 1.5105,-2.05518 -0.2634,0.67655 -0.7948,1.45566 -1.5105,2.05518 z"
   id="path70" />
<path
   fill="#ffffff"
   opacity="1"
   stroke="none"
   d="m 90.949876,241.84057 c -0.15094,0.57706 -0.56231,1.14238 -1.232253,1.80534 0.151563,-0.5406 0.561693,-1.17883 1.232253,-1.80534 z"
   id="path71" />
<path
   fill="#ffffff"
   opacity="1"
   stroke="none"
   d="m 683.46535,264.44996 c -0.5911,-0.47162 -1.1983,-1.26569 -1.8785,-2.36344 0.5722,0.47791 1.2173,1.25947 1.8785,2.36344 z"
   id="path72" />
<path
   fill="#ffffff"
   opacity="1"
   stroke="none"
   d="m 63.245743,276.96986 c 0.16128,0.82586 0.0703,1.83343 -0.0595,3.2128 -0.0902,-0.76252 -0.14144,-1.89679 0.0595,-3.2128 z"
   id="path73" />
<path
   fill="#ffffff"
   opacity="1"
   stroke="none"
   d="m 693.04705,280.36622 c -0.2249,-0.77106 -0.2542,-1.75391 -0.2485,-3.10297 0.1714,0.71961 0.3077,1.80536 0.2485,3.10297 z"
   id="path74" />
<path
   fill="#ffffff"
   opacity="1"
   stroke="none"
   d="m 180.54025,323.23676 c 0.4497,0.53549 0.8795,1.38175 1.0879,2.35413 -0.5168,-0.59708 -0.8123,-1.32022 -1.0879,-2.35413 z"
   id="path75" />
<path
   fill="#ffffff"
   opacity="1"
   stroke="none"
   d="m 665.46455,320.45484 c -0.6048,-0.47009 -1.2261,-1.2659 -1.9196,-2.37048 0.5863,0.47577 1.2447,1.26025 1.9196,2.37048 z"
   id="path76" />
<path
   fill="#ffffff"
   opacity="1"
   stroke="none"
   d="m 92.948846,317.78547 c -0.40317,0.59497 -1.10732,1.2258 -2.11308,1.92755 0.40295,-0.58322 1.10752,-1.23746 2.11308,-1.92755 z"
   id="path77" />
<path
   fill="#ffffff"
   opacity="1"
   stroke="none"
   d="m 296.02275,306.70838 c -0.2836,-0.6835 -0.3152,-1.40365 -0.3437,-2.47986 0.2007,0.57703 0.3983,1.5101 0.3437,2.47986 z"
   id="path78" />
<path
   fill="#ffffff"
   opacity="1"
   stroke="none"
   d="m 38.877573,149.86811 c -0.14185,0.57527 -0.53593,1.1268 -1.18327,1.7738 0.14151,-0.5355 0.53628,-1.16653 1.18327,-1.7738 z"
   id="path79" />

<path
   fill="#ffffff"
   opacity="1"
   stroke="none"
   d="m 666.83635,37.552304 c -0.1601,-0.567394 -0.1017,-1.297825 0.028,-2.274014 0.1109,0.539818 0.1508,1.325402 -0.028,2.274014 z"
   id="path81" />
<path
   fill="#ffffff"
   opacity="1"
   stroke="none"
   d="m 63.960693,118.78464 c -0.40454,0.5995 -1.11195,1.23486 -2.1235,1.94055 0.40413,-0.588 1.11239,-1.24634 2.1235,-1.94055 z"
   id="path82" />
<path
   fill="#ffffff"
   opacity="1"
   stroke="none"
   d="m 91.280056,83.932339 c -0.18156,0.507286 -0.64407,1.104111 -1.42632,1.77697 0.16863,-0.51178 0.657,-1.099602 1.42632,-1.77697 z"
   id="path83" />
<path
   fill="#ffffff"
   opacity="1"
   stroke="none"
   d="m 661.45985,315.46815 c -0.5281,-0.18643 -1.0773,-0.67447 -1.6578,-1.43836 0.5247,0.19504 1.0807,0.66593 1.6578,1.43836 z"
   id="path84" />
<path
   fill="#ffffff"
   opacity="1"
   stroke="none"
   d="m 75.920743,260.80155 c -0.0922,0.49045 -0.44395,1.01773 -1.03335,1.56241 0.0995,-0.49692 0.43662,-1.01123 1.03335,-1.56241 z"
   id="path85" />
<path
   fill="#ffffff"
   opacity="1"
   stroke="none"
   d="m 124.88582,261.68897 c 0.16418,-0.52777 0.61894,-1.0748 1.34486,-1.64953 -0.17065,0.52496 -0.61245,1.07763 -1.34486,1.64953 z"
   id="path86" />
<path
   fill="#ffffff"
   opacity="1"
   stroke="none"
   d="m 679.45925,259.48328 c -0.5358,-0.18744 -1.093,-0.67962 -1.6776,-1.45166 0.5337,0.19574 1.095,0.6713 1.6776,1.45166 z"
   id="path87" />
<path
   fill="#ffffff"
   opacity="1"
   stroke="none"
   d="m 616.45975,259.47498 c -0.5315,-0.18689 -1.0841,-0.67679 -1.6666,-1.4443 0.5286,0.19534 1.0869,0.66833 1.6666,1.4443 z"
   id="path88" />
<path
   fill="#ffffff"
   opacity="1"
   stroke="none"
   d="m 289.23815,321.79591 c -0.1872,0.53366 -0.6783,1.08856 -1.4482,1.67212 0.1956,-0.53119 0.6699,-1.09104 1.4482,-1.67212 z"
   id="path89" />
<path
   fill="#ffffff"
   opacity="1"
   stroke="none"
   d="m 298.66885,118.99065 c 0.3015,-0.46395 0.7549,-0.75304 1.4953,-1.09883 -0.2564,0.38676 -0.7999,0.83022 -1.4953,1.09883 z"
   id="path90" />
<path
   fill="#ffffff"
   opacity="1"
   stroke="none"
   d="m 88.223483,322.88236 c 0.0841,0.4776 -0.0614,1.04416 -0.47465,1.73984 -0.0968,-0.4642 0.0741,-1.05756 0.47465,-1.73984 z"
   id="path91" />
<path
   fill="#ffffff"
   opacity="1"
   stroke="none"
   d="m 661.45915,80.428204 c -0.5094,-0.183182 -1.0392,-0.659675 -1.6088,-1.401932 0.5029,0.192368 1.0457,0.650498 1.6088,1.401932 z"
   id="path92" />
<path
   fill="#ffffff"
   opacity="1"
   stroke="none"
   d="m 666.38645,243.15278 c -0.487,-0.0887 -0.9658,-0.42714 -1.4504,-0.99091 0.4824,0.0968 0.9705,0.41904 1.4504,0.99091 z"
   id="path93" />
<path
   fill="#ffffff"
   opacity="1"
   stroke="none"
   d="m 92.902906,239.80758 c -0.0905,0.50401 -0.445,1.04703 -1.04314,1.61705 0.0973,-0.50803 0.43823,-1.04303 1.04314,-1.61705 z"
   id="path94" />
<path
   fill="#ffffff"
   opacity="1"
   stroke="none"
   d="m 259.22815,324.65522 c 0.365,-0.28708 1.0168,-0.51804 1.9546,-0.8237 -0.3653,0.24347 -1.0166,0.56165 -1.9546,0.8237 z"
   id="path95" />
<path
   fill="#ffffff"
   opacity="1"
   stroke="none"
   d="m 708.75675,237.17832 c 0.2754,-0.5034 0.7321,-0.82367 1.4687,-1.16693 -0.2425,0.43468 -0.765,0.89238 -1.4687,1.16693 z"
   id="path96" />
<path
   fill="#ffffff"
   opacity="1"
   stroke="none"
   d="m 271.10895,329.81074 c -0.1627,0.51962 -0.612,1.05679 -1.3277,1.62518 0.1694,-0.51504 0.6052,-1.06137 1.3277,-1.62518 z"
   id="path97" />
<path
   fill="#ffffff"
   opacity="1"
   stroke="none"
   d="m 235.62945,335.96027 c 0.3163,-0.43954 0.7578,-0.70239 1.4795,-0.91354 -0.2646,0.39789 -0.8094,0.74405 -1.4795,0.91354 z"
   id="path98" />
<path
   fill="#ffffff"
   opacity="1"
   stroke="none"
   d="m 186.54195,337.01679 c 0.4435,0.30399 0.8961,0.9036 1.1275,1.61347 -0.5204,-0.36579 -0.8194,-0.84183 -1.1275,-1.61347 z"
   id="path99" />
<path
   fill="#ffffff"
   opacity="1"
   stroke="none"
   d="m 568.06315,338.68855 c 0.1086,-0.53412 0.5146,-1.12327 1.1693,-1.83979 -0.1248,0.51001 -0.4984,1.1474 -1.1693,1.83979 z"
   id="path100" />
<path
   fill="#ffffff"
   opacity="1"
   stroke="none"
   d="m 221.89915,342.68647 c 0.1624,-0.52435 0.6132,-1.06686 1.3329,-1.63834 -0.169,0.52076 -0.6067,1.07047 -1.3329,1.63834 z"
   id="path101" />
<path
   fill="#ffffff"
   opacity="1"
   stroke="none"
   d="m 632.40465,279.1962 c -0.4879,-0.0991 -0.9754,-0.45349 -1.4715,-1.03689 0.485,0.10785 0.9784,0.44473 1.4715,1.03689 z"
   id="path102" />
<path
   fill="#ffffff"
   opacity="1"
   stroke="none"
   d="m 301.46205,109.49535 c -0.5122,-0.16145 -1.0426,-0.61955 -1.6,-1.33501 0.5093,0.17455 1.0455,0.60645 1.6,1.33501 z"
   id="path103" />
<path
   fill="#ffffff"
   opacity="1"
   stroke="none"
   d="m 686.77215,286.1962 c 0.2724,-0.49725 0.7248,-0.81488 1.4539,-1.16091 -0.2401,0.42788 -0.7571,0.88418 -1.4539,1.16091 z"
   id="path104" />
<path
   fill="#ffffff"
   opacity="1"
   stroke="none"
   d="m 355.21755,291.7953 c -0.1858,0.52334 -0.6712,1.06787 -1.4301,1.64593 0.1945,-0.51919 0.6625,-1.07196 1.4301,-1.64593 z"
   id="path105" />
<path
   fill="#ffffff"
   opacity="1"
   stroke="none"
   d="m 402.44675,293.18824 c -0.5321,-0.10873 -1.1189,-0.51398 -1.8335,-1.16663 0.5079,0.1251 1.1434,0.49762 1.8335,1.16663 z"
   id="path106" />
<path
   fill="#ffffff"
   opacity="1"
   stroke="none"
   d="m 637.45775,285.47816 c -0.5254,-0.16858 -1.074,-0.64255 -1.6704,-1.38129 0.5172,0.18216 1.0823,0.62903 1.6704,1.38129 z"
   id="path107" />
<path
   fill="#ffffff"
   opacity="1"
   stroke="none"
   d="m 644.45915,294.42817 c -0.5094,-0.18317 -1.0392,-0.65964 -1.6088,-1.40186 0.503,0.19239 1.0457,0.65049 1.6088,1.40186 z"
   id="path108" />
<path
   fill="#ffffff"
   opacity="1"
   stroke="none"
   d="m 68.922753,112.79947 c -0.0893,0.4798 -0.43325,0.99382 -1.00816,1.51811 0.0972,-0.4878 0.42534,-0.98584 1.00816,-1.51811 z"
   id="path109" />
<path
   fill="#ffffff"
   opacity="1"
   stroke="none"
   d="m 351.16415,293.79774 c -0.1809,0.49969 -0.6504,1.01898 -1.3799,1.58203 0.1905,-0.49161 0.6409,-1.02704 1.3799,-1.58203 z"
   id="path110" />
<path
   fill="#ffffff"
   opacity="1"
   stroke="none"
   d="m 121.98131,281.79584 c -0.10689,0.52219 -0.49477,1.08884 -1.14383,1.70313 0.11348,-0.52112 0.48816,-1.08987 1.14383,-1.70313 z"
   id="path111" />
<path
   fill="#ffffff"
   opacity="1"
   stroke="none"
   d="m 649.46355,300.48316 c -0.492,-0.16186 -1.002,-0.61325 -1.5343,-1.31177 0.4904,0.17603 1.0035,0.59913 1.5343,1.31177 z"
   id="path112" />
<path
   fill="#ffffff"
   opacity="1"
   stroke="none"
   d="m 690.46365,116.45709 c -0.4855,-0.15506 -0.9884,-0.59411 -1.5108,-1.27442 0.4848,0.16932 0.9891,0.57987 1.5108,1.27442 z"
   id="path113" />
<path
   fill="#ffffff"
   opacity="1"
   stroke="none"
   d="m 173.54105,309.02457 c 0.4369,0.30225 0.8824,0.89695 1.109,1.60086 -0.5128,-0.36328 -0.8067,-0.83587 -1.109,-1.60086 z"
   id="path114" />
<path
   fill="#ffffff"
   opacity="1"
   stroke="none"
   d="m 301.01165,116.71086 c 0,-0.43699 0.2537,-0.90909 0.6282,-1.63666 -0.044,0.36354 -0.2051,0.98254 -0.6282,1.63666 z"
   id="path115" />
<path
   fill="#ffffff"
   opacity="1"
   stroke="none"
   d="m 691.46005,274.46113 c -0.5245,-0.18598 -1.0702,-0.67209 -1.6489,-1.43225 0.5205,0.19464 1.0742,0.66339 1.6489,1.43225 z"
   id="path116" />
<path
   fill="#ffffff"
   opacity="1"
   stroke="none"
   d="m 628.45995,274.45856 c -0.5234,-0.18582 -1.0678,-0.67117 -1.6457,-1.42996 0.5191,0.19455 1.0719,0.66248 1.6457,1.42996 z"
   id="path117" />
<path
   fill="#ffffff"
   opacity="1"
   stroke="none"
   d="m 625.45845,270.48756 c -0.5239,-0.16825 -1.0695,-0.64051 -1.6566,-1.3772 0.5174,0.1814 1.0762,0.62729 1.6566,1.3772 z"
   id="path118" />
<path
   fill="#ffffff"
   opacity="1"
   stroke="none"
   d="m 440.46965,310.24378 c -0.437,0.004 -0.9091,-0.25372 -1.6367,-0.62826 0.3635,0.0443 0.9826,0.2052 1.6367,0.62826 z"
   id="path119" />
<path
   fill="#ffffff"
   opacity="1"
   stroke="none"
   d="m 133.93626,266.79621 c -0.11877,0.52164 -0.49995,1.07956 -1.14177,1.61807 0.11937,-0.54022 0.49938,-1.061 1.14177,-1.61807 z"
   id="path120" />
<path
   fill="#ffffff"
   opacity="1"
   stroke="none"
   d="m 111.91603,267.68262 c 0.15947,-0.52206 0.605,-1.06076 1.31732,-1.6289 -0.16591,0.51776 -0.5986,1.065 -1.31732,1.6289 z"
   id="path121" />
<path
   fill="#ffffff"
   opacity="1"
   stroke="none"
   d="m 117.89015,286.81757 c -0.0924,0.53205 -0.46754,1.11374 -1.09564,1.77747 0.10231,-0.52124 0.45766,-1.12451 1.09564,-1.77747 z"
   id="path122" />
<path
   fill="#ffffff"
   opacity="1"
   stroke="none"
   d="m 684.39685,187.17673 c -0.5146,-0.12597 -1.0315,-0.51782 -1.5745,-1.1647 0.5066,0.12961 1.0395,0.51424 1.5745,1.1647 z"
   id="path123" />
<path
   fill="#ffffff"
   opacity="1"
   stroke="none"
   d="m 310.63155,173.96693 c 0.3133,-0.43673 0.7517,-0.69851 1.4681,-0.90755 -0.2624,0.396 -0.8027,0.73924 -1.4681,0.90755 z"
   id="path124" />
<path
   fill="#ffffff"
   opacity="1"
   stroke="none"
   d="m 307.77615,175.70066 c 0.1872,-0.53365 0.6783,-1.08856 1.4481,-1.67209 -0.1955,0.53121 -0.6699,1.09102 -1.4481,1.67209 z"
   id="path125" />
<path
   fill="#ffffff"
   opacity="1"
   stroke="none"
   d="m 242.11965,145.6879 c 0.3819,-0.28938 1.0678,-0.54319 2.0544,-0.87556 -0.383,0.25134 -1.0667,0.58124 -2.0544,0.87556 z"
   id="path126" />
<path
   fill="#ffffff"
   opacity="1"
   stroke="none"
   d="m 411.30795,204.83363 c 0.1698,0.15348 0.1212,0.38751 0,0.97955 -0.4021,0.40977 -0.7352,0.46153 -1.2076,0.41714 0.2356,-0.50282 0.6107,-0.90947 1.2042,-1.39669 z"
   id="path127" />
<path
   fill="#ffffff"
   opacity="1"
   stroke="none"
   d="m 214.20445,355.79548 c -0.1848,0.51721 -0.6665,1.05536 -1.4182,1.62988 0.1937,-0.51211 0.6575,-1.06055 1.4182,-1.62988 z"
   id="path128" />
<path
   fill="#ffffff"
   opacity="1"
   stroke="none"
   d="m 550.46445,360.19764 c -0.4229,-0.008 -0.8792,-0.26965 -1.5801,-0.64856 0.3526,0.0535 0.9497,0.22427 1.5801,0.64856 z"
   id="path129" />
<path
   fill="#ffffff"
   opacity="1"
   stroke="none"
   d="m 97.224686,18.795426 c -0.18632,0.526876 -0.67373,1.074993 -1.43645,1.654983 0.19492,-0.52333 0.66514,-1.078537 1.43645,-1.654983 z"
   id="path130" />
<path
   fill="#ffffff"
   opacity="1"
   stroke="none"
   d="m 677.45945,178.49334 c -0.5166,-0.16898 -1.0539,-0.63959 -1.6286,-1.37163 0.511,0.18239 1.0595,0.62619 1.6286,1.37163 z"
   id="path131" />
<path
   fill="#ffffff"
   opacity="1"
   stroke="none"
   d="m 56.272163,205.92971 c -0.1822,0.50201 -0.6427,1.09596 -1.41999,1.76659 0.16937,-0.5071 0.65553,-1.09088 1.41999,-1.76659 z"
   id="path132" />
<path
   fill="#ffffff"
   opacity="1"
   stroke="none"
   d="m 733.78715,187.70116 c 0.1866,-0.52807 0.6747,-1.07742 1.4388,-1.65805 -0.1951,0.52472 -0.6661,1.08075 -1.4388,1.65805 z"
   id="path133" />
<path
   fill="#ffffff"
   opacity="1"
   stroke="none"
   d="m 659.83445,53.512738 c -0.1292,-0.547745 -0.034,-1.251229 0.2748,-2.076294 0.1254,0.559128 0.038,1.239841 -0.2748,2.076294 z"
   id="path134" />
<path
   fill="#ffffff"
   opacity="1"
   stroke="none"
   d="m 510.46085,342.17573 c -0.4137,-0.0137 -0.859,-0.27588 -1.539,-0.65982 0.346,0.0559 0.9267,0.23358 1.539,0.65982 z"
   id="path135" />
<path
   fill="#ffffff"
   opacity="1"
   stroke="none"
   d="m 696.41195,202.22051 c -0.5208,-0.13318 -1.05,-0.53868 -1.6042,-1.20488 0.5153,0.13706 1.0555,0.53481 1.6042,1.20488 z"
   id="path136" />
<path
   fill="#ffffff"
   opacity="1"
   stroke="none"
   d="m 689.45855,193.47907 c -0.5221,-0.16787 -1.0666,-0.63916 -1.6547,-1.37365 0.5151,0.18127 1.0737,0.62576 1.6547,1.37365 z"
   id="path137" />
<path
   fill="#ffffff"
   opacity="1"
   stroke="none"
   d="m 666.45645,29.231686 c -0.2507,-0.342399 -0.4696,-0.944862 -0.5954,-1.792936 0.2714,0.347217 0.4494,0.940044 0.5954,1.792936 z"
   id="path138" />
<path
   fill="#ffffff"
   opacity="1"
   stroke="none"
   d="m 94.542196,50.014908 c 0.44518,0.304444 0.8995,0.905228 1.13201,1.616505 -0.52217,-0.36639 -0.82253,-0.843277 -1.13201,-1.616505 z"
   id="path139" />
<path
   fill="#ffffff"
   opacity="1"
   stroke="none"
   d="m 715.45925,147.48331 c -0.5358,-0.18739 -1.0928,-0.67953 -1.6775,-1.45144 0.5337,0.19569 1.095,0.67119 1.6775,1.45144 z"
   id="path140" />
<path
   fill="#ffffff"
   opacity="1"
   stroke="none"
   d="m 408.72915,207.20203 c 0.1341,0.41143 0.099,0.84929 -0.1645,1.39072 -0.1538,-0.38571 -0.079,-0.87498 0.1645,-1.39072 z"
   id="path141" />
<path
   fill="#ffffff"
   opacity="1"
   stroke="none"
   d="m 695.45745,122.47152 c -0.5277,-0.16755 -1.079,-0.64087 -1.6803,-1.37944 0.5189,0.18105 1.0877,0.62735 1.6803,1.37944 z"
   id="path142" />
<path
   fill="#ffffff"
   opacity="1"
   stroke="none"
   d="m 101.228,17.285508 c -0.26995,0.492744 -0.71826,0.808679 -1.440944,1.157074 0.237964,-0.422989 0.750274,-0.878437 1.440944,-1.157074 z"
   id="path143" />
<path
   fill="#ffffff"
   opacity="1"
   stroke="none"
   d="m 63.774053,169.70054 c 0.1873,-0.53472 0.67892,-1.0907 1.44982,-1.67481 -0.19564,0.53244 -0.67056,1.09301 -1.44982,1.67481 z"
   id="path144" />
<path
   fill="#ffffff"
   opacity="1"
   stroke="none"
   d="m 667.14735,32.250805 c -0.2314,-0.432769 -0.2982,-1.014915 -0.3054,-1.881347 0.1964,0.3878 0.3331,1.059885 0.3054,1.881347 z"
   id="path145" />
<path
   fill="#ffffff"
   opacity="1"
   stroke="none"
   d="m 97.609136,154.01456 c 0.34965,0.0463 0.80527,0.29523 1.0476,0.64081 -0.51062,-0.007 -0.7534,-0.18567 -1.0476,-0.64081 z"
   id="path146" />
<path
   fill="#ffffff"
   opacity="1"
   stroke="none"
   d="m 713.45995,223.46592 c -0.5268,-0.18634 -1.0749,-0.67377 -1.6549,-1.43646 0.5233,0.19493 1.0785,0.66516 1.6549,1.43646 z"
   id="path147" />
<path
   fill="#ffffff"
   opacity="1"
   stroke="none"
   d="m 650.45995,223.45853 c -0.5234,-0.18577 -1.0678,-0.67111 -1.6457,-1.4299 0.5191,0.19449 1.0719,0.66242 1.6457,1.4299 z"
   id="path148" />
<path
   fill="#ffffff"
   opacity="1"
   stroke="none"
   d="m 702.45995,131.45853 c -0.5234,-0.18579 -1.0678,-0.67112 -1.6457,-1.42989 0.5191,0.1945 1.0719,0.66241 1.6457,1.42989 z"
   id="path149" />
<path
   fill="#ffffff"
   opacity="1"
   stroke="none"
   d="m 707.45905,137.4853 c -0.5369,-0.18752 -1.095,-0.68022 -1.6801,-1.45325 0.5349,0.19582 1.0969,0.67194 1.6801,1.45325 z"
   id="path150" />
<path
   fill="#ffffff"
   opacity="1"
   stroke="none"
   d="m 46.974353,139.79293 c -0.0989,0.51381 -0.47011,1.06801 -1.09602,1.64845 0.10477,-0.51854 0.46425,-1.06329 1.09602,-1.64845 z"
   id="path151" />
<path
   fill="#ffffff"
   opacity="1"
   stroke="none"
   d="m 173.55455,781.01954 c 0.5326,0.18689 1.0864,0.67737 1.6693,1.44592 -0.5299,-0.19543 -1.0889,-0.66894 -1.6693,-1.44592 z"
   id="path152" />
<path
   fill="#ffffff"
   opacity="1"
   stroke="none"
   d="m 561.05925,353.689 c 0.1083,-0.53601 0.5148,-1.12726 1.1714,-1.84558 -0.1244,0.51209 -0.4988,1.15125 -1.1714,1.84558 z"
   id="path153" />
<path
   fill="#ffffff"
   opacity="1"
   stroke="none"
   d="m 701.46245,208.47929 c -0.4997,-0.16294 -1.0184,-0.61843 -1.5638,-1.32511 0.4972,0.17673 1.0211,0.60465 1.5638,1.32511 z"
   id="path154" />
<path
   fill="#ffffff"
   opacity="1"
   stroke="none"
   d="m 638.45945,208.47701 c -0.5326,-0.18702 -1.0863,-0.67747 -1.6692,-1.44609 0.5299,0.19542 1.089,0.66904 1.6692,1.44609 z"
   id="path155" />
<path
   fill="#ffffff"
   opacity="1"
   stroke="none"
   d="m 642.23545,18.293139 c -0.2713,0.494993 -0.7218,0.811758 -1.448,1.158936 0.2391,-0.425448 0.7539,-0.881306 1.448,-1.158936 z"
   id="path156" />
<path
   fill="#ffffff"
   opacity="1"
   stroke="none"
   d="m 586.02365,301.70783 c 0.2117,-0.16079 0.7197,-0.29577 1.3577,-0.20758 -0.2671,0.22659 -0.6642,0.23004 -1.3577,0.20758 z"
   id="path157" />
<path
   fill="#ffffff"
   opacity="1"
   stroke="none"
   d="m 671.38605,92.76392 c -0.2043,-0.04847 -0.3998,-0.272926 -0.637,-0.701645 0.1875,0.03905 0.4166,0.282349 0.637,0.701645 z"
   id="path158" />
<path
   fill="#ffffff"
   opacity="1"
   stroke="none"
   d="m 681.43295,105.23909 c -0.2705,-0.13162 -0.5393,-0.53095 -0.8762,-1.19533 0.2473,0.13251 0.5627,0.53007 0.8762,1.19533 z"
   id="path159" />
<path
   fill="#ffffff"
   opacity="1"
   stroke="none"
   d="m 647.36685,298.05241 c -0.251,-0.11054 -0.465,-0.45111 -0.7407,-1.02268 0.2182,0.11023 0.4979,0.45145 0.7407,1.02268 z"
   id="path160" />
<path
   fill="#565656"
   opacity="1"
   stroke="none"
   d="m 299.30585,107.39426 c -0.5578,0.21292 -1.2102,0.0161 -2.0906,-0.45631 0.5133,-0.16819 1.2545,-0.0608 2.0906,0.45631 z"
   id="path161" />
<path
   fill="#ffffff"
   opacity="1"
   stroke="none"
   d="m 665.38845,26.109549 c -0.2506,-0.118965 -0.4747,-0.477363 -0.7611,-1.07295 0.221,0.119711 0.5043,0.476616 0.7611,1.07295 z"
   id="path162" />

<path
   fill="#ffffff"
   opacity="1"
   stroke="none"
   d="m 472.21825,278.93671 c 0.1108,0.39023 0,0.91208 -0.3649,1.49878 -0.1236,-0.41247 0.011,-0.88983 0.3649,-1.49878 z"
   id="path164" />
<path
   fill="#ffffff"
   opacity="1"
   stroke="none"
   d="m 92.940976,82.781262 c -0.0895,0.362679 -0.43974,0.752571 -1.06671,1.084427 0.0842,-0.391098 0.44501,-0.724159 1.06671,-1.084427 z"
   id="path165" />
<path
   fill="#ffffff"
   opacity="1"
   stroke="none"
   d="m 277.76395,67.585095 c -0.098,-0.363548 0.018,-0.84436 0.3676,-1.386108 0.1045,0.382324 -0.024,0.825584 -0.3676,1.386108 z"
   id="path166" />

<path
   fill="#ffffff"
   opacity="1"
   stroke="none"
   d="m 102.61182,66.37106 c 0.23648,0.125 0.43026,0.452568 0.58088,1.00235 -0.23663,-0.118462 -0.4301,-0.459122 -0.58088,-1.00235 z"
   id="path168" />
<path
   fill="#ffffff"
   opacity="1"
   stroke="none"
   d="m 653.03505,67.460736 c -0.1415,-0.313316 -0.1227,-0.750878 0.1095,-1.236054 0.1591,0.33886 0.105,0.725342 -0.1095,1.236054 z"
   id="path169" />
<path
   fill="#ffffff"
   opacity="1"
   stroke="none"
   d="m 654.16245,65.22585 c -0.1592,-0.288536 -0.1676,-0.638459 0.01,-1.01413 0.1708,0.300415 0.156,0.626579 -0.01,1.01413 z"
   id="path170" />
<path
   fill="#ffffff"
   opacity="1"
   stroke="none"
   d="m 118.04045,324.66331 c 0.0989,-0.22373 0.35991,-0.40821 0.76251,-0.45743 0.022,0.44586 -0.22525,0.56631 -0.76251,0.45743 z"
   id="path171" />
<path
   fill="#ffffff"
   opacity="1"
   stroke="none"
   d="m 120.01634,323.66895 c 0.1178,-0.22287 0.4274,-0.4114 0.9288,-0.50287 -0.11779,0.24378 -0.42738,0.39054 -0.9288,0.50287 z"
   id="path172" />
<path
   fill="#ffffff"
   opacity="1"
   stroke="none"
   d="m 194.58065,353.25404 c 0.3695,-0.26593 0.6124,-0.13862 0.8255,0.39599 -0.2345,0.0745 -0.542,-0.0622 -0.8255,-0.39599 z"
   id="path173" />
<path
   fill="#ffffff"
   opacity="1"
   stroke="none"
   d="m 675.36195,97.784391 c -0.05,0.11722 -0.3923,0.0748 -0.3923,0.0748 0,0 -0.07,-0.44086 -2e-4,-0.5657 0.3262,-0.0867 0.4503,0.0795 0.3925,0.49092 z"
   id="path174" />
<path
   fill="#ffffff"
   opacity="1"
   stroke="none"
   d="m 664.37965,84.08215 c -0.2534,-0.113724 -0.4763,-0.463615 -0.7621,-1.050034 0.2222,0.113602 0.5073,0.46373 0.7621,1.050034 z"
   id="path175" />
<path
   fill="#ffffff"
   opacity="1"
   stroke="none"
   d="m 101.60881,64.356625 c 0.22466,0.09525 0.39915,0.35331 0.47876,0.764748 -0.42979,0.03752 -0.57448,-0.214257 -0.47876,-0.764748 z"
   id="path176" />
<path
   fill="#ffffff"
   opacity="1"
   stroke="none"
   d="m 277.37815,59.111188 c -0.3837,-0.07918 -0.7412,-0.407986 -1.0348,-0.994812 0.3963,0.07638 0.7287,0.410781 1.0348,0.994812 z"
   id="path177" />
<path
   fill="#ffffff"
   opacity="1"
   stroke="none"
   d="m 451.88035,315.02509 c -0.3054,0.17972 -0.6761,0.20981 -1.0681,0.0262 0.3201,-0.20111 0.6615,-0.18848 1.0681,-0.0262 z"
   id="path178" />
<path
   fill="#ffffff"
   opacity="1"
   stroke="none"
   d="m 143.92101,312.70563 c 0.14854,-0.24615 0.533,-0.48129 1.17292,-0.66009 -0.14204,0.26126 -0.53952,0.46619 -1.17292,0.66009 z"
   id="path179" />
<path
   fill="#ffffff"
   opacity="1"
   stroke="none"
   d="m 128.41313,40.127942 c -0.23309,-0.123135 -0.42691,-0.445942 -0.57657,-0.988053 0.23473,0.116585 0.42528,0.452481 0.57657,0.988053 z"
   id="path180" />
<path
   fill="#ffffff"
   opacity="1"
   stroke="none"
   d="m 83.939293,93.783398 c -0.073,0.375412 -0.41135,0.78038 -1.02652,1.137406 0.0692,-0.401246 0.41517,-0.754548 1.02652,-1.137406 z"
   id="path181" />
<path
   fill="#ffffff"
   opacity="1"
   stroke="none"
   d="m 584.04445,305.44825 c -0.1426,-0.30798 -0.1268,-0.73834 0.097,-1.21497 0.1592,0.33335 0.1102,0.71296 -0.097,1.21497 z"
   id="path182" />
<path
   fill="#ffffff"
   opacity="1"
   stroke="none"
   d="m 137.93579,261.78205 c -0.0889,0.36203 -0.43796,0.75107 -1.06267,1.08276 0.0837,-0.39016 0.44313,-0.72299 1.06267,-1.08276 z"
   id="path183" />
<path
   fill="#ffffff"
   opacity="1"
   stroke="none"
   d="m 315.98355,231.68998 c 0.1373,-0.2395 0.4967,-0.45868 1.0973,-0.62033 -0.1308,0.25189 -0.5029,0.44627 -1.0973,0.62033 z"
   id="path184" />
<path
   fill="#ffffff"
   opacity="1"
   stroke="none"
   d="m 657.39075,232.11533 c -0.2458,-0.12211 -0.4623,-0.4796 -0.7378,-1.07061 0.2163,0.12274 0.4918,0.47898 0.7378,1.07061 z"
   id="path185" />
<path
   fill="#ffffff"
   opacity="1"
   stroke="none"
   d="m 39.980953,148.03809 c 0.1481,0.33255 0.13244,0.79485 -0.11346,1.29424 -0.17026,-0.36344 -0.11029,-0.76396 0.11346,-1.29424 z"
   id="path186" />
<path
   fill="#ffffff"
   opacity="1"
   stroke="none"
   d="m 699.37985,206.08454 c -0.2545,-0.11366 -0.4791,-0.46457 -0.7669,-1.05304 0.2234,0.11354 0.5101,0.46468 0.7669,1.05304 z"
   id="path187" />
<path
   fill="#ffffff"
   opacity="1"
   stroke="none"
   d="m 73.919613,262.85279 c -0.11782,0.27237 -0.49305,0.52951 -1.1259,0.85358 0.11774,-0.245 0.49311,-0.55692 1.1259,-0.85358 z"
   id="path188" />
<path
   fill="#ffffff"
   opacity="1"
   stroke="none"
   d="m 693.43565,120.25518 c -0.2777,-0.13099 -0.5561,-0.53458 -0.9022,-1.20915 0.2553,0.13153 0.5784,0.53404 0.9022,1.20915 z"
   id="path189" />
<path
   fill="#ffffff"
   opacity="1"
   stroke="none"
   d="m 687.42405,191.21268 c -0.2707,-0.12701 -0.5358,-0.51814 -0.8685,-1.17175 0.2462,0.12757 0.5601,0.51761 0.8685,1.17175 z"
   id="path190" />
<path
   fill="#ffffff"
   opacity="1"
   stroke="none"
   d="m 619.38365,263.0926 c -0.2544,-0.11481 -0.4807,-0.46808 -0.7704,-1.05994 0.2239,0.11478 0.5112,0.46814 0.7704,1.05994 z"
   id="path191" />
<path
   fill="#ffffff"
   opacity="1"
   stroke="none"
   d="m 623.40965,268.15543 c -0.2553,-0.12384 -0.4951,-0.4963 -0.7996,-1.11548 0.2285,0.12449 0.5218,0.49567 0.7996,1.11548 z"
   id="path192" />
<path
   fill="#ffffff"
   opacity="1"
   stroke="none"
   d="m 249.51455,203.80048 c -0.1095,0.30226 -0.2226,0.43233 -0.5906,0.60547 -0.1367,-0.40069 -0.019,-0.84448 0.3116,-1.37413 0.2573,0.13935 0.2783,0.36678 0.279,0.76866 z"
   id="path193" />
<path
   fill="#ffffff"
   opacity="1"
   stroke="none"
   d="m 57.947393,204.78004 c -0.0918,0.36078 -0.44459,0.74861 -1.07512,1.07794 0.0862,-0.38928 0.45016,-0.72008 1.07512,-1.07794 z"
   id="path194" />
<path
   fill="#ffffff"
   opacity="1"
   stroke="none"
   d="m 78.943913,256.78284 c -0.0719,0.37677 -0.41023,0.78345 -1.02627,1.14316 0.0681,-0.4024 0.41399,-0.75781 1.02627,-1.14316 z"
   id="path195" />
<path
   fill="#ffffff"
   opacity="1"
   stroke="none"
   d="m 685.40435,110.13565 c -0.2506,-0.12217 -0.4822,-0.48742 -0.7763,-1.0941 0.2233,0.12273 0.5094,0.48688 0.7763,1.0941 z"
   id="path196" />
<path
   fill="#ffffff"
   opacity="1"
   stroke="none"
   d="m 279.91945,248.70596 c 0.1478,-0.24442 0.53,-0.47754 1.1653,-0.65252 -0.1416,0.26004 -0.5362,0.46193 -1.1653,0.65252 z"
   id="path197" />
<path
   fill="#ffffff"
   opacity="1"
   stroke="none"
   d="m 507.29885,204.13636 c -0.1266,0.19055 -0.2987,0.16275 -0.6372,-0.067 -0.1615,-0.38153 -0.1585,-0.5612 -0.1543,-0.87558 0.2507,0.1516 0.4983,0.43789 0.7915,0.94254 z"
   id="path198" />
<path
   fill="#ffffff"
   opacity="1"
   stroke="none"
   d="m 664.34375,240.92725 c -0.229,-0.0966 -0.4086,-0.38862 -0.6351,-0.88377 0.197,0.094 0.4408,0.39119 0.6351,0.88377 z"
   id="path199" />
<path
   fill="#ffffff"
   opacity="1"
   stroke="none"
   d="m 659.41055,234.75175 c -0.1851,-0.0246 -0.3579,-0.18581 -0.4852,-0.51038 0.32,-0.10847 0.4707,0.0705 0.4852,0.51038 z"
   id="path200" />
<path
   fill="#ffffff"
   opacity="1"
   stroke="none"
   d="m 99.929746,230.78455 c -0.0751,0.37252 -0.41346,0.77381 -1.02671,1.12552 0.0712,-0.39863 0.41736,-0.74768 1.02671,-1.12552 z"
   id="path201" />
<path
   fill="#ffffff"
   opacity="1"
   stroke="none"
   d="m 71.973643,225.69196 c 0.13186,-0.2317 0.4765,-0.44165 1.04618,-0.57922 -0.12778,0.24857 -0.48059,0.42476 -1.04618,0.57922 z"
   id="path202" />
<path
   fill="#ffffff"
   opacity="1"
   stroke="none"
   d="m 689.63605,284.98267 c -0.064,-0.46792 0.098,-0.7193 0.5935,-0.85626 -0.01,0.3634 -0.243,0.68286 -0.5935,0.85626 z"
   id="path203" />
<path
   fill="#ffffff"
   opacity="1"
   stroke="none"
   d="m 120.09749,283.79874 c 0.2711,0.36814 0.13968,0.6298 -0.40332,0.87354 -0.0842,-0.24329 0.0533,-0.56397 0.40332,-0.87354 z"
   id="path204" />
<path
   fill="#ffffff"
   opacity="1"
   stroke="none"
   d="m 635.43285,283.24458 c -0.2766,-0.12967 -0.5524,-0.53013 -0.896,-1.19986 0.2538,0.13018 0.5753,0.52963 0.896,1.19986 z"
   id="path205" />
<path
   fill="#ffffff"
   opacity="1"
   stroke="none"
   d="m 470.91495,281.14384 c 0.2774,0.22036 0.2607,0.47946 -0.062,0.74792 -0.2836,-0.2392 -0.2591,-0.4787 0.062,-0.74792 z"
   id="path206" />
<path
   fill="#ffffff"
   opacity="1"
   stroke="none"
   d="m 653.38895,227.10926 c -0.2578,-0.11603 -0.4909,-0.47501 -0.7887,-1.07675 0.2281,0.11607 0.5207,0.47494 0.7887,1.07675 z"
   id="path207" />
<path
   fill="#ffffff"
   opacity="1"
   stroke="none"
   d="m 734.39405,171.11887 c -0.2566,-0.11787 -0.4905,-0.4795 -0.7891,-1.08432 0.2275,0.11806 0.5196,0.47931 0.7891,1.08432 z"
   id="path208" />
<path
   fill="#ffffff"
   opacity="1"
   stroke="none"
   d="m 688.35405,114.01791 c -0.2462,-0.10776 -0.4482,-0.43669 -0.7088,-0.98851 0.212,0.10719 0.4826,0.43726 0.7088,0.98851 z"
   id="path209" />
<path
   fill="#ffffff"
   opacity="1"
   stroke="none"
   d="m 81.938623,174.78269 c -0.0805,0.37071 -0.4241,0.76991 -1.04431,1.11502 0.076,-0.39825 0.42856,-0.7424 1.04431,-1.11502 z"
   id="path210" />
<path
   fill="#ffffff"
   opacity="1"
   stroke="none"
   d="m 675.40575,176.15162 c -0.2599,-0.12167 -0.5035,-0.49376 -0.8128,-1.11496 0.2325,0.12212 0.5308,0.49333 0.8128,1.11496 z"
   id="path211" />
<path
   fill="#ffffff"
   opacity="1"
   stroke="none"
   d="m 89.922496,277.70527 c 0.14922,-0.24783 0.53579,-0.48499 1.17987,-0.66739 -0.14249,0.26254 -0.5425,0.47031 -1.17987,0.66739 z"
   id="path212" />
<path
   fill="#ffffff"
   opacity="1"
   stroke="none"
   d="m 66.912483,114.85721 c 0.3095,0.36863 0.20688,0.59888 -0.32209,0.79676 -0.24483,-0.1895 -0.3115,-0.44681 -0.30948,-0.70356 3.5e-4,-0.045 0.28888,-0.0878 0.63157,-0.0932 z"
   id="path213" />
<path
   fill="#ffffff"
   opacity="1"
   stroke="none"
   d="m 630.35675,277.02607 c -0.2475,-0.1084 -0.4523,-0.44022 -0.7166,-0.99692 0.2134,0.10791 0.4863,0.44071 0.7166,0.99692 z"
   id="path214" />
<path
   fill="#ffffff"
   opacity="1"
   stroke="none"
   d="m 686.40605,268.1673 c -0.2577,-0.12637 -0.4965,-0.50323 -0.8003,-1.12768 0.2298,0.12732 0.5245,0.50226 0.8003,1.12768 z"
   id="path215" />
<path
   fill="#ffffff"
   opacity="1"
   stroke="none"
   d="m 137.01259,392.02131 c 0.18638,0.21762 0.10994,0.45529 -0.27094,0.64337 -0.15242,-0.23953 -0.0482,-0.43079 0.27094,-0.64337 z"
   id="path216" />
<path
   fill="#ffffff"
   opacity="1"
   stroke="none"
   d="m 44.735453,142.1919 c 0.0616,-9e-5 0.0638,0.2578 -0.0192,0.2453 -0.083,-0.0125 -0.0424,-0.24519 0.0192,-0.2453 z"
   id="path217" />
<path
   fill="#ffffff"
   opacity="1"
   stroke="none"
   d="m 193.59395,351.90052 c 0.2244,-0.11786 0.4537,0.0372 0.6386,0.48096 -0.2656,0.13662 -0.4621,-0.0289 -0.6386,-0.48096 z"
   id="path218" />
<path
   fill="#ffffff"
   opacity="1"
   stroke="none"
   d="m 240.77945,146.63233 c -0.162,-0.22011 -0.05,-0.43167 0.357,-0.57788 0.148,0.24599 0.022,0.41968 -0.357,0.57788 z"
   id="path219" />
<path
   fill="#ffffff"
   opacity="1"
   stroke="none"
   d="m 697.41495,203.59814 c -0.2316,0.12246 -0.4698,-0.0406 -0.6679,-0.50569 0.2669,-0.13566 0.474,0.0384 0.6679,0.50569 z"
   id="path220" />
<path
   fill="#ffffff"
   opacity="1"
   stroke="none"
   d="m 276.33055,57.705227 c -0.1411,0.24091 -0.3006,0.294365 -0.6356,0.166649 0.089,-0.238819 0.3531,-0.296463 0.6356,-0.166649 z"
   id="path221" />
<path
   fill="#a2a2a2"
   opacity="1"
   stroke="none"
   d="m 620.59875,55.001862 c 0.2685,-0.03641 0.4458,0.161366 0.5835,0.383682 0.016,0.02538 -0.1902,0.188057 -0.505,0.334515 -0.2017,-0.127281 -0.1916,-0.302002 -0.079,-0.718197 z"
   id="path222" />
<path
   fill="#ffffff"
   opacity="1"
   stroke="none"
   d="m 116.79213,325.63435 c -0.15451,-0.2045 -0.0602,-0.39689 0.30054,-0.5199 0.15478,0.24023 0.0488,0.39447 -0.30054,0.5199 z"
   id="path223" />
<path
   fill="#ffffff"
   opacity="1"
   stroke="none"
   d="m 129.4239,41.597886 c -0.22137,0.116394 -0.44566,-0.0337 -0.62255,-0.465237 0.26666,-0.139343 0.45741,0.02073 0.62255,0.465237 z"
   id="path224" />
<path
   fill="#ffffff"
   opacity="1"
   stroke="none"
   d="m 685.41935,188.5969 c -0.2262,0.11887 -0.4577,-0.0382 -0.6457,-0.48703 0.2662,-0.13644 0.4652,0.0312 0.6457,0.48703 z"
   id="path225" />
<path
   fill="#ffffff"
   opacity="1"
   stroke="none"
   d="m 20.619913,186.15057 c 0.19369,-0.23545 0.40541,-0.17772 0.557,0.21634 -0.22585,0.18023 -0.38547,0.0937 -0.557,-0.21634 z"
   id="path226" />
<path
   fill="#ffffff"
   opacity="1"
   stroke="none"
   d="m 80.331463,175.91964 c 0.055,0.16791 -0.12048,0.41939 -0.54621,0.76488 -0.1652,-0.24005 0.0234,-0.49851 0.54621,-0.76488 z"
   id="path227" />
<path
   fill="#ffffff"
   opacity="1"
   stroke="none"
   d="m 735.42695,172.58939 c -0.2114,0.11121 -0.4252,-0.0299 -0.5906,-0.4364 0.2611,-0.13943 0.441,0.0104 0.5906,0.4364 z"
   id="path228" />
<path
   fill="#ffffff"
   opacity="1"
   stroke="none"
   d="m 175.77835,785.3296 c 0.018,-0.0495 0.2706,0.0158 0.2077,0.0723 -0.063,0.0564 -0.2261,-0.0228 -0.2077,-0.0723 z"
   id="path229" />
<path
   fill="#ffffff"
   opacity="1"
   stroke="none"
   d="m 580.14575,785.43262 c -0.058,-0.01 -0.072,-0.2655 0,-0.23114 0.077,0.0344 0.053,0.24122 0,0.23114 z"
   id="path230" />
<path
   fill="#ffffff"
   opacity="1"
   stroke="none"
   d="m 176.68395,786.1587 c 0.2507,-0.25745 0.4492,-0.18073 0.515,0.26556 -0.2509,0.14215 -0.3956,0.0418 -0.515,-0.26556 z"
   id="path231" />
<path
   fill="#ffffff"
   opacity="1"
   stroke="none"
   d="m 453.39285,316.34931 c 0.067,0.13364 -0.2974,0.16834 -0.2974,0.16834 0,0 -0.2909,-0.22211 -0.2799,-0.40134 0.2286,-0.17825 0.3949,-0.0854 0.5773,0.233 z"
   id="path232" />
<path
   fill="#ffffff"
   opacity="1"
   stroke="none"
   d="m 686.42115,111.59872 c -0.2253,0.11855 -0.4548,-0.0363 -0.6387,-0.4803 0.2674,-0.13793 0.4638,0.0274 0.6387,0.4803 z"
   id="path233" />
<path
   fill="#ffffff"
   opacity="1"
   stroke="none"
   d="m 682.41495,106.59632 c -0.2303,0.12165 -0.4677,-0.0409 -0.6658,-0.50413 0.2657,-0.13513 0.4722,0.0384 0.6658,0.50413 z"
   id="path234" />
<path
   fill="#ffffff"
   opacity="1"
   stroke="none"
   d="m 633.41745,280.59864 c -0.2295,0.12106 -0.4644,-0.0389 -0.6568,-0.49622 0.2674,-0.13656 0.4704,0.0343 0.6568,0.49622 z"
   id="path235" />
<path
   fill="#ffffff"
   opacity="1"
   stroke="none"
   d="m 123.50407,278.94343 c 0.19298,-0.003 0.33101,0.47 0.14739,0.63382 -0.33353,-0.0214 -0.48811,-0.20349 -0.61994,-0.40079 -0.007,-0.0101 0.18192,-0.15063 0.47255,-0.23303 z"
   id="path236" />
<path
   fill="#ffffff"
   opacity="1"
   stroke="none"
   d="m 88.661103,278.65229 c -0.12372,-0.23288 0.0436,-0.47519 0.51807,-0.68393 0.13407,0.26379 -0.044,0.47742 -0.51807,0.68393 z"
   id="path237" />
<path
   fill="#ffffff"
   opacity="1"
   stroke="none"
   d="m 584.99525,302.56293 c -0.3088,-0.20391 -0.2559,-0.42013 0.213,-0.58215 0.1743,0.20917 0.085,0.38107 -0.213,0.58215 z"
   id="path238" />
<path
   fill="#ffffff"
   opacity="1"
   stroke="none"
   d="m 82.497643,94.939786 c 0.19238,-0.0058 0.33862,0.468788 0.15436,0.63507 -0.33488,-0.01804 -0.49061,-0.198913 -0.62266,-0.395691 -0.007,-0.01115 0.17947,-0.152748 0.4683,-0.239379 z"
   id="path239" />
<path
   fill="#ffffff"
   opacity="1"
   stroke="none"
   d="m 142.66112,313.65229 c -0.12375,-0.23291 0.0435,-0.47519 0.51802,-0.6839 0.13408,0.26376 -0.044,0.47739 -0.51802,0.6839 z"
   id="path240" />
<path
   fill="#ffffff"
   opacity="1"
   stroke="none"
   d="m 620.42985,264.58643 c -0.2052,0.10877 -0.4119,-0.0254 -0.5688,-0.41433 0.2588,-0.14185 0.4313,1.8e-4 0.5688,0.41433 z"
   id="path241" />
<path
   fill="#ffffff"
   opacity="1"
   stroke="none"
   d="m 450.27835,314.33131 c 0.053,0.126 -0.3269,0.22088 -0.5188,0.18316 -0.044,-0.35006 0.1752,-0.44055 0.5188,-0.18316 z"
   id="path242" />
<path
   fill="#ffffff"
   opacity="1"
   stroke="none"
   d="m 136.42029,262.90546 c 0.23677,0.1261 0.29384,0.28687 0.17604,0.6341 -0.31979,0.01 -0.47487,-0.16007 -0.59613,-0.3515 -0.0144,-0.0227 0.15578,-0.16248 0.42009,-0.2826 z"
   id="path243" />
<path
   fill="#ffffff"
   opacity="1"
   stroke="none"
   d="m 70.764793,226.63401 c -0.16312,-0.22783 -0.0399,-0.45059 0.39299,-0.61325 0.14498,0.24899 0.006,0.43506 -0.39299,0.61325 z"
   id="path244" />
<path
   fill="#ffffff"
   opacity="1"
   stroke="none"
   d="m 666.41875,86.594571 c -0.225,0.118187 -0.4557,-0.03844 -0.6435,-0.485596 0.2648,-0.135635 0.4632,0.03148 0.6435,0.485596 z"
   id="path245" />
<path
   fill="#ffffff"
   opacity="1"
   stroke="none"
   d="m 665.32495,85.330105 c 0.03,0.125573 -0.2842,0.156182 -0.2842,0.156182 0,0 -0.2315,-0.213517 -0.2035,-0.366341 0.2212,-0.163437 0.3645,-0.08431 0.4877,0.210159 z"
   id="path246" />
<path
   fill="#ffffff"
   opacity="1"
   stroke="none"
   d="m 77.348673,257.93113 c 0.055,0.17395 -0.12667,0.42432 -0.56148,0.76681 -0.16731,-0.24765 0.0254,-0.50848 0.56148,-0.76681 z"
   id="path247" />
<path
   fill="#ffffff"
   opacity="1"
   stroke="none"
   d="m 179.60315,321.90235 c 0.2329,-0.12372 0.4752,0.0435 0.6839,0.51807 -0.2637,0.13406 -0.4774,-0.044 -0.6839,-0.51807 z"
   id="path248" />
<path
   fill="#ffffff"
   opacity="1"
   stroke="none"
   d="m 278.66115,249.6522 c -0.1237,-0.2329 0.043,-0.47518 0.5181,-0.6839 0.134,0.26379 -0.044,0.47743 -0.5181,0.6839 z"
   id="path249" />
<path
   fill="#ffffff"
   opacity="1"
   stroke="none"
   d="m 667.42505,244.59132 c -0.2156,0.1129 -0.4345,-0.033 -0.6064,-0.45188 0.2624,-0.13789 0.4477,0.0174 0.6064,0.45188 z"
   id="path250" />
<path
   fill="#ffffff"
   opacity="1"
   stroke="none"
   d="m 662.43725,238.58024 c -0.1822,0.1065 -0.3659,-0.002 -0.5096,-0.32788 0.2479,-0.17104 0.4039,-0.061 0.5096,0.32788 z"
   id="path251" />
<path
   fill="#ffffff"
   opacity="1"
   stroke="none"
   d="m 257.81525,325.62629 c -0.1586,-0.19818 -0.076,-0.38028 0.2634,-0.48981 0.1596,0.23444 0.066,0.37885 -0.2634,0.48981 z"
   id="path252" />
<path
   fill="#ffffff"
   opacity="1"
   stroke="none"
   d="m 314.76695,232.63309 c -0.1642,-0.22793 -0.042,-0.45048 0.3912,-0.61257 0.1452,0.24873 0.01,0.43457 -0.3912,0.61257 z"
   id="path253" />
<path
   fill="#ffffff"
   opacity="1"
   stroke="none"
   d="m 98.488016,231.93441 c 0.24427,0.14859 0.29711,0.30766 0.1648,0.63672 -0.33683,-0.013 -0.4943,-0.19203 -0.62671,-0.38802 -0.009,-0.0127 0.17583,-0.1558 0.46191,-0.2487 z"
   id="path254" />
<path
   fill="#ffffff"
   opacity="1"
   stroke="none"
   d="m 655.41575,229.59711 c -0.23,0.12145 -0.4666,-0.0403 -0.6629,-0.5017 0.2662,-0.1355 0.4716,0.0372 0.6629,0.5017 z"
   id="path255" />
<path
   fill="#ffffff"
   opacity="1"
   stroke="none"
   d="m 654.33495,228.34776 c 0.034,0.13043 -0.2899,0.1474 -0.2899,0.1474 0,0 -0.2387,-0.21966 -0.2146,-0.37777 0.2246,-0.16131 0.3731,-0.0753 0.5045,0.23037 z"
   id="path256" />
<path
   fill="#fbfbfb"
   opacity="1"
   stroke="none"
   d="m 317.53465,626.55921 c 6.6498,-11.49487 13.2581,-23.01404 19.9592,-34.47894 9.9909,-17.09339 20.0393,-34.1532 30.0782,-51.21863 9.6403,-16.388 19.2919,-32.76941 28.971,-49.13455 0.557,-0.94171 1.4064,-1.71051 2.1198,-2.55979 0.4695,0.13376 0.9391,0.26752 1.4087,0.40128 -6.5538,34.4924 -13.1077,68.98477 -19.8136,104.2778 2.3726,0 4.4458,0 7.2939,0.23297 13.5647,0.38941 26.3544,0.54596 39.144,0.70252 3.936,0 7.8719,0 13.1107,0 -26.6446,43.46954 -52.6155,85.83996 -78.5863,128.21032 -0.7529,-0.28009 -1.5059,-0.56011 -2.2588,-0.8402 6.6635,-30.48945 13.4486,-60.95331 20.6474,-92.17762 -1.5788,-1.33343 -3.1611,-2.2351 -4.7487,-2.24444 -17.4313,-0.10315 -34.8635,-0.0372 -52.2951,-0.11707 -1.6783,-0.008 -3.3536,-0.68646 -5.0304,-1.05365 z"
   id="path257"
   style="stroke:#000000;stroke-width:4.7;stroke-dasharray:none;stroke-opacity:1" />
<path
   fill="#919191"
   opacity="1"
   stroke="none"
   d="m 317.22135,626.73676 c 1.9901,0.18964 3.6654,0.86841 5.3437,0.8761 17.4316,0.0798 34.8638,0.0139 52.2951,0.11707 1.5876,0.009 3.1699,0.91101 4.7521,1.86322 -2.0405,0.0282 -4.0763,-0.77668 -6.1165,-0.78784 -18.0891,-0.0987 -36.1792,-0.0336 -54.2683,-0.13788 -0.7519,-0.004 -3.6405,1.50525 -2.0061,-1.93067 z"
   id="path258" />
<path
   fill="#a8a8a8"
   opacity="1"
   stroke="none"
   d="m 426.41615,594.43958 c -12.5099,0.18573 -25.2996,0.0292 -38.4136,-0.33691 12.495,-0.14148 25.3144,-0.0734 38.4136,0.33691 z"
   id="path259" />
<path
   fill="#ffffff"
   opacity="1"
   stroke="none"
   d="m 660.52195,154.4694 c -0.1012,0.2427 -0.2995,0.24856 -0.7958,0.24093 0.034,-0.16825 0.3665,-0.32302 0.7958,-0.24093 z"
   id="path260" />
<path
   fill="#ffffff"
   opacity="1"
   stroke="none"
   d="m 659.22875,154.74281 c 0.2027,0.21395 0.085,0.4754 -0.2979,0.82382 -0.3754,-0.23935 -0.2948,-0.52713 0.2979,-0.82382 z"
   id="path261" />
</svg>
