<?xml version="1.0" encoding="UTF-8" standalone="no"?>
<svg
   version="1.1"
   width="256"
   height="256"
   viewBox="0 0 256 256"
   xml:space="preserve"
   id="svg1"
   sodipodi:docname="Icon_New_Substation_Star.svg"
   inkscape:version="1.3.2 (091e20e, 2023-11-25, custom)"
   xmlns:inkscape="http://www.inkscape.org/namespaces/inkscape"
   xmlns:sodipodi="http://sodipodi.sourceforge.net/DTD/sodipodi-0.dtd"
   xmlns="http://www.w3.org/2000/svg"
   xmlns:svg="http://www.w3.org/2000/svg"><sodipodi:namedview
   id="namedview1"
   pagecolor="#ffffff"
   bordercolor="#000000"
   borderopacity="0.25"
   inkscape:showpageshadow="2"
   inkscape:pageopacity="0.0"
   inkscape:pagecheckerboard="0"
   inkscape:deskcolor="#d1d1d1"
   inkscape:zoom="3.0351562"
   inkscape:cx="127.83526"
   inkscape:cy="128"
   inkscape:window-width="1920"
   inkscape:window-height="991"
   inkscape:window-x="-9"
   inkscape:window-y="-9"
   inkscape:window-maximized="1"
   inkscape:current-layer="svg1" />

<defs
   id="defs1">
</defs>
<g
   style="opacity:1;fill:#000000;fill-rule:nonzero;stroke:none;stroke-width:0;stroke-linecap:butt;stroke-linejoin:miter;stroke-miterlimit:10;stroke-dasharray:none;fill-opacity:1"
   transform="matrix(2.81,0,0,2.81,1.0771211,0.41817642)"
   id="g1">
	<path
   d="m 18.228,87.915 c -0.416,0 -0.832,-0.13 -1.184,-0.389 -0.693,-0.509 -0.983,-1.403 -0.721,-2.222 L 25.872,55.503 0.815,37.065 C 0.119,36.553 -0.17,35.651 0.1,34.83 0.37,34.009 1.136,33.454 2,33.454 H 33.018 L 43.104,3.448 C 43.378,2.634 44.141,2.085 45,2.085 c 0.859,0 1.622,0.548 1.895,1.363 L 56.981,33.454 H 88 c 0.864,0 1.631,0.555 1.9,1.376 0.27,0.821 -0.019,1.723 -0.715,2.235 l -25.057,18.439 9.548,29.801 c 0.263,0.818 -0.027,1.713 -0.72,2.222 -0.695,0.509 -1.635,0.52 -2.336,0.023 L 45,69.506 19.38,87.55 c -0.346,0.244 -0.749,0.365 -1.152,0.365 z M 8.092,37.454 29.4,53.134 c 0.692,0.51 0.981,1.403 0.719,2.222 l -8.167,25.49 21.895,-15.421 c 0.691,-0.486 1.613,-0.486 2.303,0 l 21.895,15.421 -8.167,-25.49 c -0.263,-0.818 0.027,-1.712 0.719,-2.222 L 81.905,37.454 H 55.544 c -0.859,0 -1.622,-0.548 -1.895,-1.363 L 45,10.363 36.352,36.092 c -0.274,0.814 -1.037,1.363 -1.896,1.363 H 8.092 Z"
   style="opacity:1;fill:#000000;fill-rule:nonzero;stroke:none;stroke-width:1;stroke-linecap:butt;stroke-linejoin:miter;stroke-miterlimit:10;stroke-dasharray:none;fill-opacity:1"
   stroke-linecap="round"
   id="path1" />
</g>
<path
   style="fill:#0fffff;stroke:#000000;stroke-width:1.44968;fill-opacity:1"
   d="m 63.559024,225.60618 c 2.344782,-6.64694 22.596593,-70.66568 22.590963,-71.41313 -0.01195,-1.58687 -1.117432,-3.58822 -2.670077,-4.8339 -0.792717,-0.63599 -14.328847,-10.63171 -30.080297,-22.2127 L 24.760616,106.09009 62.13063,105.92535 c 40.97762,-0.18064 38.20867,-0.0367 40.12179,-2.08493 0.55953,-0.59902 4.14052,-10.842588 12.88214,-36.849836 6.65895,-19.811102 12.16929,-36.213618 12.24521,-36.450035 0.0759,-0.236418 5.53307,15.627675 12.12702,35.25354 6.59395,19.625863 12.24651,36.202311 12.56126,36.836541 0.31474,0.63423 0.87474,1.42671 1.24445,1.76106 1.69328,1.53132 0.96673,1.50387 40.20865,1.5192 l 37.02179,0.0145 -17.575,12.93179 c -45.39931,33.40509 -42.56827,31.26101 -43.39474,32.86487 -0.59301,1.15081 -0.72375,1.81444 -0.58416,2.96525 0.0989,0.81544 5.27515,17.34672 11.50276,36.73616 6.22761,19.38945 11.28496,35.30231 11.23856,35.36191 -0.0464,0.0596 -13.70047,-9.4874 -30.34237,-21.21555 -16.6419,-11.72815 -30.85105,-21.59606 -31.57589,-21.92867 -1.60678,-0.73733 -2.78277,-0.77315 -4.31831,-0.13156 -0.64194,0.26822 -14.85514,10.12768 -31.584892,21.90991 -16.729751,11.78223 -30.500528,21.42224 -30.601726,21.42224 -0.101194,0 0.01214,-0.55599 0.251852,-1.23552 z"
   id="path2" /></svg>
