<?xml version="1.0" encoding="UTF-8" standalone="no"?>
<!-- Created with Inkscape (http://www.inkscape.org/) -->

<svg
   version="1.1"
   id="svg1"
   width="474"
   height="504"
   viewBox="0 0 474 504"
   xmlns="http://www.w3.org/2000/svg"
   xmlns:svg="http://www.w3.org/2000/svg">
  <defs
     id="defs1" />
  <g
     id="g1">
    <path
       style="fill:#00ffff;stroke:#000000;stroke-width:2.85405"
       d="M 73.297297,475.14267 C 58.407737,474.72901 58.572814,474.76424 48.954399,469.9478 36.6127,463.76768 27.160204,456.18652 18.856699,445.80862 13.489696,439.10082 9.8567812,432.58889 6.9517711,424.46924 L 4.5405405,417.72973 4.5953527,239.67567 4.6501649,61.621621 7.5515157,53.441762 C 12.102333,40.611517 17.968143,31.354977 27.884915,21.354646 34.572307,14.610905 40.292646,10.612336 48.523097,6.9283667 l 6.612038,-2.959564 99.950145,-0.257686 99.95015,-0.257686 0.42607,10.2732843 c 0.23434,5.650307 0.43137,19.030042 0.43785,29.732744 0.0131,21.655721 0.80394,36.342078 2.26378,42.040405 1.44996,5.659725 5.35208,14.302339 8.95992,19.844826 4.8105,7.39007 13.93655,16.20305 19.90398,19.22116 8.85502,4.47857 7.53327,4.36366 53.67567,4.66616 l 41.67568,0.27321 v 61.79876 61.79876 l -17.35135,0.39061 c -10.76017,0.24224 -19.93855,0.78869 -24.16216,1.43854 -22.58742,3.47532 -45.6191,13.99176 -65.51352,29.91395 -8.1869,6.55227 -18.42078,17.22196 -24.64865,25.69833 l -5.51351,7.50411 -76.21622,0.25927 c -81.135429,0.27601 -79.504596,0.21242 -85.471625,3.33242 -1.166154,0.60975 -4.156398,3.0294 -6.644978,5.377 -7.444813,7.02306 -10.152711,14.33937 -9.567221,25.8491 0.238341,4.6854 0.655522,6.57119 2.111511,9.5447 3.811661,7.78443 12.252234,15.77582 18.705795,17.71031 6.219502,1.86434 22.610638,2.3508 66.271928,1.96686 23.18919,-0.20392 48.07297,-0.54599 55.2973,-0.76017 l 13.13513,-0.38941 v 12.74558 c 0,18.12038 1.3756,28.68357 5.56169,42.70799 3.78043,12.66535 10.95821,28.76485 16.76713,37.60807 l 1.17174,1.78378 -79.69623,-0.13134 C 122.78222,475.5802 80.789189,475.3508 73.297297,475.14267 Z M 301.49739,252.50044 c 6.8324,-3.26241 11.96814,-8.40207 15.20765,-15.21927 2.19284,-4.61459 2.42875,-5.65344 2.65308,-11.68311 0.39736,-10.68062 -2.36488,-17.65866 -10.17443,-25.70284 -4.27015,-4.39844 -6.96054,-5.94264 -12.20199,-7.00355 -5.07334,-1.02688 -186.67103,-1.59496 -199.035754,-0.62263 -11.549066,0.90819 -13.942476,1.73169 -19.41133,6.67887 -8.714465,7.88319 -11.812781,15.37989 -11.288773,27.31435 0.218288,4.97159 0.590825,6.6496 2.257891,10.17017 4.71781,9.96326 13.822255,16.99459 23.500722,18.14954 2.361062,0.28175 49.098244,0.47282 103.860414,0.42461 l 99.56756,-0.0877 z"
       id="path9" />
    <path
       style="fill:#00ffff;stroke:#000000;stroke-width:2.85405"
       d="m 297.90491,92.552607 c -4.02661,-4.304763 -7.397,-9.543042 -8.91012,-13.848162 -1.56852,-4.462722 -1.83149,-9.81958 -2.31126,-47.082824 l -0.3612,-28.0540534 h 3.85051 c 2.82431,0 3.95003,0.2593086 4.22389,0.9729729 0.20535,0.5351351 0.91972,0.972973 1.58748,0.972973 2.94985,0 17.80264,10.3425055 32.53029,22.6519645 16.84813,14.081753 35.12502,32.108063 42.23202,41.652993 6.09184,8.181555 8.45532,13.598394 8.87611,20.34312 l 0.34401,5.514084 h -39.57023 -39.57024 z"
       id="path10" />
    <path
       style="fill:#00ffff;stroke:#000000;stroke-width:2.85405"
       d="m 349.94594,502.33511 c -1.24865,-0.29851 -5.04324,-1.17087 -8.43243,-1.93859 -13.00515,-2.94593 -25.93579,-8.01032 -34.96349,-13.69372 -32.08279,-20.19782 -51.29943,-52.46947 -53.02593,-89.04962 -0.93343,-19.77715 2.69028,-36.85586 11.50366,-54.21718 15.0766,-29.69913 42.12966,-50.80448 74.86413,-58.40498 7.53226,-1.74889 29.53177,-2.46033 39.07767,-1.26373 35.09103,4.39875 68.09897,28.59219 83.57106,61.25409 3.51612,7.42261 7.6081,19.7422 8.74555,26.32997 0.46198,2.67568 1.15213,5.07312 1.53366,5.32766 0.9767,0.6516 0.954,31.1154 -0.0241,32.35629 -0.39479,0.50085 -1.07634,2.80794 -1.51456,5.12686 -1.31864,6.97788 -6.38294,21.23308 -10.18138,28.65897 -14.79788,28.92965 -43.27165,50.81492 -74.50666,57.26669 -2.62192,0.54157 -6.45552,1.42444 -8.51911,1.96194 -4.13146,1.07611 -23.97809,1.27744 -28.12806,0.28535 z m 81.57344,-93.70317 c 1.4695,-1.25784 3.49231,-3.95784 4.49513,-6 1.61826,-3.29543 1.82063,-4.40606 1.79938,-9.87518 -0.0208,-5.36317 -0.24428,-6.58269 -1.7233,-9.40541 -2.32257,-4.43264 -5.04131,-6.85625 -8.42478,-7.51022 -1.54052,-0.29776 -13.09014,-0.5541 -25.66582,-0.56964 l -22.86486,-0.0283 v -20.3439 c 0,-21.6658 -0.44811,-26.33777 -2.76432,-28.8206 -5.85753,-6.27889 -23.41222,-6.631 -27.39696,-0.54951 -1.82796,2.78982 -2.34077,13.72218 -2.13906,45.6015 0.21526,34.0223 0.11949,33.30657 4.94959,36.99067 2.19811,1.67658 2.93458,1.83567 10.15764,2.19419 4.28324,0.2126 21.08922,0.43532 37.34662,0.49494 l 29.55892,0.10839 z"
       id="path11" />
  </g>
</svg>
