<?xml version="1.0" encoding="UTF-8" standalone="no"?>
<svg
   version="1.1"
   id="Layer_1"
   x="0px"
   y="0px"
   viewBox="0 0 101.24 122.88"
   style="enable-background:new 0 0 101.24 122.88"
   xml:space="preserve"
   xmlns="http://www.w3.org/2000/svg"
   xmlns:svg="http://www.w3.org/2000/svg"><defs
     id="defs1" /><style
     type="text/css"
     id="style1"><![CDATA[
	.st0{fill-rule:evenodd;clip-rule:evenodd;}
]]></style><g
     id="g1"><path
       class="st0"
       d="M23.46,93.89c3.54,0,6.41,2.88,6.41,6.41c0,3.55-2.88,6.42-6.41,6.42c-3.55,0-6.42-2.88-6.42-6.42 C17.05,96.76,19.92,93.89,23.46,93.89L23.46,93.89L23.46,93.89z M96.07,122.87H5.74v0.01c-1.56,0-3-0.65-4.05-1.69l0,0v-0.01H1.68 l-0.01-0.01C0.64,120.13,0,118.7,0,117.14v-96.9c0-1.58,0.65-3.02,1.69-4.06s2.48-1.69,4.06-1.69h14.92v-2.82 c0-1.05,0.43-2.01,1.13-2.71l0,0l0.01-0.01l0.01-0.01c0.7-0.69,1.66-1.12,2.71-1.12h8.81V4.27c0-1.17,0.48-2.23,1.25-3.01 l0.01-0.01l0,0C35.37,0.48,36.43,0,37.6,0h26.89c1.17,0,2.23,0.48,3.01,1.26l0.01-0.01c0.77,0.77,1.25,1.84,1.25,3.02v3.56h7.94 c1.05,0,2.01,0.43,2.71,1.13l0.01,0.01l0.01,0.01l0.01,0.01c0.69,0.7,1.12,1.66,1.12,2.71v2.82h14.92c1.57,0,3.01,0.65,4.05,1.69 l0.01-0.01c1.04,1.04,1.69,2.48,1.69,4.06v102.61L96.07,122.87V20.24c0-0.16-0.07-0.3-0.17-0.41l0.01-0.01H95.9 c-0.1-0.1-0.25-0.16-0.41-0.16l-14.92,0v5.17c0,1.05-0.43,2.01-1.13,2.71h-0.01l-0.01,0.01l-0.01,0.01 c-0.7,0.69-1.66,1.12-2.71,1.12H24.52c-1.06,0-2.03-0.43-2.72-1.13c-0.08-0.08-0.16-0.17-0.22-0.26c-0.56-0.67-0.91-1.54-0.91-2.47 v-5.17H5.74c-0.16,0-0.3,0.07-0.41,0.17c-0.11,0.11-0.17,0.25-0.17,0.41v96.89c0,0.16,0.06,0.31,0.17,0.41l0,0l0.01,0.01 c0.1,0.1,0.25,0.17,0.41,0.17v0.01l90.31,0.01V122.87L96.07,122.87z M66.93,12.96c-0.3,0-0.59-0.05-0.85-0.15 c-1.41,0-2.56-1.15-2.56-2.56V5.18H38.58v5.07c0,1.33-1.01,2.42-2.32,2.55c-0.28,0.1-0.58,0.16-0.88,0.16H26v10.46h49.24V12.96 H66.93L66.93,12.96L66.93,12.96z M47.29,79.45H26.33v9.17c0,1.58-1.28,2.86-2.86,2.86s-2.86-1.28-2.86-2.86V77.45 c0-0.15,0.01-0.29,0.03-0.43c-0.02-0.14-0.03-0.28-0.03-0.43c0-1.58,1.28-2.86,2.86-2.86h23.66l-0.09-7.7 c-0.57-0.17-1.14-0.36-1.7-0.59c-0.56-0.24-1.1-0.49-1.62-0.79l-1.78,1.96c-0.33,0.34-0.74,0.51-1.21,0.53 c-0.47,0.02-0.89-0.13-1.24-0.44l-2.61-2.45c-0.35-0.34-0.55-0.74-0.57-1.21c-0.02-0.48,0.14-0.88,0.47-1.21l1.95-2.11 c-0.3-0.52-0.58-1.06-0.8-1.61c-0.23-0.55-0.43-1.13-0.6-1.72l-2.61,0.1c-0.48,0.02-0.89-0.14-1.25-0.47 c-0.35-0.34-0.53-0.74-0.55-1.19l-0.14-3.58c-0.02-0.48,0.13-0.89,0.45-1.25c0.33-0.35,0.72-0.53,1.21-0.55l2.85-0.11 c0.17-0.59,0.36-1.16,0.59-1.72s0.49-1.1,0.79-1.62l-1.93-1.78c-0.35-0.33-0.55-0.73-0.57-1.21c-0.02-0.47,0.14-0.89,0.47-1.25 l2.4-2.61c0.34-0.35,0.73-0.55,1.21-0.57c0.48-0.02,0.88,0.15,1.21,0.47l2.15,1.95c0.49-0.29,1.01-0.57,1.57-0.81 c0.55-0.23,1.13-0.43,1.72-0.6l-0.1-2.61c-0.02-0.48,0.14-0.89,0.47-1.25c0.34-0.35,0.74-0.53,1.19-0.55l3.58-0.13 c0.48-0.02,0.89,0.13,1.25,0.45c0.35,0.33,0.53,0.72,0.55,1.21l0.11,2.85c0.57,0.17,1.14,0.36,1.7,0.59 c0.56,0.22,1.1,0.49,1.62,0.79l1.78-1.92c0.33-0.35,0.74-0.55,1.21-0.57c0.47-0.02,0.89,0.14,1.25,0.47l0.04,0.03l2.61,2.4 c0.35,0.34,0.55,0.73,0.57,1.21c0.02,0.48-0.15,0.88-0.47,1.21l-1.95,2.15c0.29,0.51,0.57,1.03,0.81,1.6 c0.23,0.57,0.43,1.13,0.6,1.7l2.61-0.1c0.48-0.02,0.89,0.14,1.25,0.47c0.35,0.34,0.53,0.74,0.55,1.19l0.14,3.58 c0.02,0.48-0.13,0.89-0.45,1.25c-0.33,0.35-0.72,0.53-1.21,0.55l-2.85,0.11c-0.17,0.57-0.36,1.14-0.59,1.7 c-0.24,0.56-0.49,1.1-0.79,1.62l1.96,1.78c0.34,0.33,0.51,0.74,0.53,1.21c0.02,0.47-0.13,0.88-0.44,1.24l-2.45,2.62 c-0.31,0.35-0.71,0.54-1.19,0.57c-0.48,0.02-0.89-0.14-1.23-0.47l-2.11-1.95c-0.52,0.3-1.06,0.58-1.62,0.8 c-0.55,0.23-1.13,0.43-1.72,0.6l0.09,7.73h23.61c1.58,0,2.86,1.28,2.86,2.86c0,0.15-0.01,0.29-0.03,0.43 c0.02,0.14,0.03,0.28,0.03,0.43v11.17c0,1.58-1.28,2.86-2.86,2.86c-1.58,0-2.86-1.28-2.86-2.86v-9.16H54.16v8.25 c0,1.9-1.54,3.44-3.44,3.44s-3.44-1.54-3.44-3.44V79.45L47.29,79.45L47.29,79.45z M50.21,45.76c0.97-0.04,1.88,0.1,2.76,0.44 c0.87,0.34,1.63,0.8,2.3,1.41c0.65,0.61,1.18,1.34,1.59,2.18c0.41,0.86,0.62,1.75,0.66,2.72c0.04,0.97-0.11,1.88-0.44,2.76 c-0.34,0.87-0.81,1.63-1.41,2.3c-0.61,0.65-1.34,1.18-2.18,1.59c-0.84,0.4-1.75,0.62-2.72,0.66c-0.97,0.04-1.88-0.11-2.76-0.44 c-0.87-0.34-1.63-0.81-2.3-1.41c-0.65-0.61-1.18-1.34-1.59-2.18c-0.4-0.84-0.62-1.75-0.66-2.72c-0.04-0.97,0.11-1.88,0.44-2.76 c0.34-0.87,0.81-1.63,1.41-2.3c0.61-0.65,1.34-1.18,2.18-1.59C48.35,46.01,49.25,45.8,50.21,45.76L50.21,45.76L50.21,45.76z M77.77,93.89c3.55,0,6.42,2.88,6.42,6.41c0,3.55-2.88,6.42-6.42,6.42c-3.54,0-6.41-2.88-6.41-6.42 C71.35,96.76,74.23,93.89,77.77,93.89L77.77,93.89L77.77,93.89z M50.5,93.89c3.55,0,6.42,2.88,6.42,6.41 c0,3.55-2.88,6.42-6.42,6.42c-3.55,0-6.42-2.88-6.42-6.42C44.09,96.76,46.96,93.89,50.5,93.89L50.5,93.89L50.5,93.89z"
       id="path1" /></g><path
     style="fill:#00ffff;stroke:#000000;stroke-width:0.695846"
     d="m 5.4033461,117.47665 c -0.057987,-0.058 -0.1054312,-22.040673 -0.1054312,-48.850414 0,-44.303161 0.022795,-48.753731 0.2501545,-48.840977 0.137585,-0.0528 3.5891371,-0.09599 7.6701156,-0.09599 h 7.419961 v 3.009867 c 0,3.236005 0.06753,3.594356 0.877503,4.656281 0.23059,0.302319 0.787725,0.729946 1.238078,0.950284 l 0.818825,0.400614 27.209312,-0.04088 27.20931,-0.04088 0.774131,-0.478621 c 0.479205,-0.296277 0.956474,-0.773307 1.252751,-1.252126 l 0.478622,-0.773505 0.04858,-3.215519 0.04858,-3.215518 h 7.410916 c 4.076004,0 7.523487,0.0432 7.661072,0.09599 0.227361,0.08725 0.250154,4.547108 0.250154,48.946409 v 48.850415 h -45.2036 c -24.861982,0 -45.2510468,-0.0474 -45.3090339,-0.10543 z M 24.781714,106.65277 c 1.183551,-0.24762 2.534229,-1.00513 3.353039,-1.88051 3.789271,-4.05104 1.219232,-10.593991 -4.274527,-10.882339 -2.324154,-0.121987 -4.249148,0.759009 -5.619165,2.571679 -1.376907,1.821785 -1.637304,4.58261 -0.625982,6.6369 1.348481,2.73915 4.230625,4.16854 7.166635,3.55427 z m 27.043088,0 c 1.183551,-0.24762 2.53423,-1.00513 3.353039,-1.88051 3.789271,-4.05104 1.219232,-10.593991 -4.274527,-10.882339 -3.078868,-0.161599 -5.693021,1.610219 -6.565899,4.450229 -1.468593,4.77824 2.630241,9.32883 7.487387,8.31262 z m 27.187433,0.015 c 1.990829,-0.37477 3.732778,-1.73066 4.61428,-3.59163 0.476398,-1.00575 0.507373,-1.17822 0.504866,-2.8111 -0.0024,-1.551663 -0.04846,-1.837919 -0.426422,-2.649459 -0.587551,-1.261544 -1.800676,-2.493788 -3.094177,-3.142944 -1.014438,-0.509106 -1.142431,-0.533469 -2.802598,-0.533469 -1.630102,0 -1.807065,0.03195 -2.811099,0.507538 -0.653156,0.309384 -1.373568,0.817673 -1.845217,1.301897 -3.491708,3.584803 -1.839482,9.524527 3.012322,10.829257 1.036818,0.27881 1.728544,0.30065 2.848045,0.0899 z M 24.983958,91.12622 c 0.352879,-0.199861 0.785954,-0.632937 0.985815,-0.985816 0.348968,-0.61615 0.356506,-0.734781 0.359053,-5.650522 l 0.0026,-5.021158 h 10.437683 10.437683 v 4.370223 c 0,2.817153 0.06415,4.584338 0.180514,4.972724 0.70494,2.35288 3.913717,3.161208 5.724935,1.442177 1.026119,-0.973892 1.053007,-1.132013 1.053007,-6.192569 v -4.592555 h 10.35239 10.352391 l 0.04575,5.125341 0.04576,5.12534 0.485684,0.607478 c 0.634181,0.79321 1.381405,1.1605 2.360957,1.1605 0.979606,0 1.726815,-0.36731 2.360956,-1.16059 l 0.485684,-0.60757 0.04441,-6.883941 c 0.04366,-6.768624 0.03871,-6.895719 -0.295917,-7.586959 -0.206778,-0.427147 -0.591984,-0.869583 -0.981642,-1.127485 L 78.780355,73.696369 66.576089,73.653079 54.371823,73.609789 54.269177,71.597168 C 54.212717,70.490227 54.16624,68.785285 54.165888,67.80841 l -6.42e-4,-1.776138 0.434903,-0.103632 c 0.239197,-0.057 0.987687,-0.353491 1.663308,-0.658874 l 1.228406,-0.555241 1.085581,1.04804 c 1.876444,1.811555 2.374293,1.800633 4.223337,-0.09265 1.954973,-2.001742 2.118384,-2.240481 2.118805,-3.095499 3.51e-4,-0.713998 -0.03988,-0.777424 -1.186404,-1.870207 l -1.186768,-1.131144 0.449891,-1.003837 c 0.247441,-0.55211 0.534581,-1.261073 0.638089,-1.575473 0.177166,-0.538132 0.236558,-0.577447 1.01327,-0.670749 0.453789,-0.05451 1.166645,-0.09973 1.584122,-0.100487 0.417478,-7.56e-4 0.974386,-0.112728 1.237574,-0.248828 0.777541,-0.402081 0.911186,-0.958242 0.813853,-3.38683 -0.127923,-3.191913 -0.267421,-3.367845 -2.761158,-3.482318 L 63.79948,49.025473 63.241977,47.681225 C 62.935349,46.94189 62.6479,46.222591 62.603203,46.082786 c -0.05103,-0.159598 0.236275,-0.600991 0.772031,-1.1861 1.179324,-1.287966 1.386692,-1.629283 1.380237,-2.271808 -0.008,-0.798552 -0.204305,-1.064701 -1.96951,-2.670529 -2.263391,-2.059032 -2.750143,-2.089404 -4.46993,-0.278917 l -1.088701,1.14612 -0.610242,-0.316688 c -0.335634,-0.174178 -1.042393,-0.472942 -1.570579,-0.66392 L 54.086176,39.49372 53.981801,37.831323 c -0.173406,-2.76185 -0.291923,-2.850846 -3.697619,-2.776595 l -2.469597,0.05384 -0.550005,0.600429 -0.550006,0.600429 0.02968,1.597687 0.02968,1.597688 -0.939695,0.353262 c -0.516833,0.194293 -1.227219,0.499943 -1.578634,0.679221 l -0.638936,0.325961 -1.091116,-0.993814 c -1.242456,-1.131659 -1.612046,-1.360709 -2.1956,-1.360709 -0.680124,0 -1.202131,0.377262 -2.53289,1.830555 -1.487778,1.62477 -1.647502,1.872656 -1.654936,2.568413 -0.0078,0.731046 0.212711,1.075905 1.385754,2.167067 l 1.023254,0.951828 -0.394704,0.787786 c -0.217088,0.433284 -0.513582,1.151075 -0.658876,1.595094 l -0.26417,0.807306 -1.694708,0.109566 c -2.700901,0.174618 -2.910312,0.45745 -2.770553,3.741917 0.135241,3.178248 0.276077,3.354915 2.765565,3.469193 l 1.722575,0.07907 0.557504,1.344247 c 0.306627,0.739336 0.592576,1.452895 0.63544,1.585688 0.04753,0.147241 -0.35757,0.719191 -1.038303,1.465962 -1.051619,1.153636 -1.116236,1.267647 -1.116236,1.96951 0,0.735243 0.02125,0.76601 1.624262,2.351646 2.409574,2.383455 3.110987,2.462956 4.826353,0.547036 l 0.983438,-1.098418 1.148553,0.530665 c 0.631705,0.291864 1.335363,0.57755 1.563686,0.634855 0.565077,0.141826 0.607685,0.448105 0.607685,4.368268 v 3.301313 l -11.900541,8.82e-4 c -8.194791,6.07e-4 -12.096413,0.05526 -12.529561,0.175511 -0.830186,0.230479 -1.7441,1.160111 -1.971796,2.005707 -0.124589,0.462692 -0.165748,2.682344 -0.133808,7.216099 l 0.04613,6.547857 0.47444,0.669143 c 0.260942,0.368028 0.722411,0.801044 1.025487,0.962261 0.786957,0.418606 2.11999,0.387372 2.924958,-0.06854 z"
     id="path2" /><path
     style="fill:#00ffff;stroke:#000000;stroke-width:0.695846"
     d="m 48.594682,59.475271 c -4.079874,-1.171174 -6.195341,-5.882798 -4.333098,-9.650792 1.036659,-2.097535 2.895921,-3.487591 5.200695,-3.888239 4.442612,-0.772276 8.628062,3.410035 7.877193,7.871286 -0.392725,2.333359 -1.746702,4.13937 -3.901843,5.204498 -1.093697,0.540534 -1.341457,0.600063 -2.651149,0.636983 -0.867345,0.02445 -1.743272,-0.04498 -2.191798,-0.173736 z"
     id="path3" /><path
     style="fill:#00ffff;stroke:#000000;stroke-width:0.695846"
     d="m 26.015135,18.194885 v -5.131756 l 5.179304,-0.04755 c 5.163632,-0.0474 5.181698,-0.04875 5.970039,-0.442916 0.605278,-0.302639 0.874189,-0.560864 1.146564,-1.101 0.328076,-0.650597 0.35583,-0.91888 0.35583,-3.4396913 V 5.2979149 h 12.414517 12.414517 v 2.902327 c 0,2.7494791 0.01874,2.9298611 0.35583,3.4251501 0.878877,1.291337 1.529843,1.421712 7.098651,1.421712 h 4.248376 v 5.139768 5.139768 H 50.606949 26.015135 Z"
     id="path4" /></svg>
